<mxfile host="app.diagrams.net" agent="Mozilla/5.0 (Macintosh; Intel Mac OS X 10_15_7) AppleWebKit/605.1.15 (KHTML, like Gecko) Version/18.0 Safari/605.1.15" version="28.0.9">
  <diagram name="第 1 页" id="4NZpDi9nc8O8iXZy3iIu">
    <mxGraphModel dx="946" dy="540" grid="1" gridSize="10" guides="1" tooltips="1" connect="1" arrows="1" fold="1" page="1" pageScale="1" pageWidth="827" pageHeight="1169" math="0" shadow="0">
      <root>
        <mxCell id="0" />
        <mxCell id="1" parent="0" />
        <mxCell id="dmqp8DJoeUCVNRRBBs8O-17" style="edgeStyle=orthogonalEdgeStyle;rounded=0;orthogonalLoop=1;jettySize=auto;html=1;exitX=1;exitY=0.5;exitDx=0;exitDy=0;" edge="1" parent="1" source="dmqp8DJoeUCVNRRBBs8O-1">
          <mxGeometry relative="1" as="geometry">
            <mxPoint x="339" y="262" as="targetPoint" />
            <mxPoint x="252.03999999999996" y="262" as="sourcePoint" />
          </mxGeometry>
        </mxCell>
        <mxCell id="dmqp8DJoeUCVNRRBBs8O-20" style="edgeStyle=orthogonalEdgeStyle;rounded=0;orthogonalLoop=1;jettySize=auto;html=1;exitX=0.5;exitY=0;exitDx=0;exitDy=0;entryX=0;entryY=0.5;entryDx=0;entryDy=0;" edge="1" parent="1" source="dmqp8DJoeUCVNRRBBs8O-1" target="dmqp8DJoeUCVNRRBBs8O-13">
          <mxGeometry relative="1" as="geometry" />
        </mxCell>
        <mxCell id="dmqp8DJoeUCVNRRBBs8O-1" value="" style="shape=image;imageAspect=0;aspect=fixed;verticalLabelPosition=bottom;verticalAlign=top;image=data:image/svg+xml,PHN2ZyB4bWxucz0iaHR0cDovL3d3dy53My5vcmcvMjAwMC9zdmciIHZlcnNpb249IjEuMSIgdmlld0JveD0iMCA2NCAxMDI0IDg4My4yMDAwMTIyMDcwMzEyIiBoZWlnaHQ9IjE3Mi41MDAwMDIzODQxODU4IiB3aWR0aD0iMjAwIiBjbGFzcz0iaWNvbiI+PHBhdGggZD0iTTkyOCAzODRoOTZ2Mzg0aC05NnpNNTc2IDUxMmE2NCA2NCAwIDEgMCAxMjggMCA2NCA2NCAwIDEgMC0xMjggMHpNMCAzODRoOTZ2Mzg0SDB6IG0zODQgMjY4LjhoMjU2djk2SDM4NHpNNTYzLjIgNjRINDYwLjh2MTQwLjhoLTMyMHY3NDIuNGg3NDIuNFYyMDQuOGgtMzIwVjY0eiBtMjE3LjYgMjQzLjJ2NTM3LjZIMjQzLjJWMzA3LjJoNTM3LjZ6TTMyMCA1MTJhNjQgNjQgMCAxIDAgMTI4IDAgNjQgNjQgMCAxIDAtMTI4IDB6Ii8+PC9zdmc+;" vertex="1" parent="1">
          <mxGeometry x="170.95" y="231" width="72.09" height="62" as="geometry" />
        </mxCell>
        <mxCell id="dmqp8DJoeUCVNRRBBs8O-2" value="&lt;span style=&quot;font-size: 14px;&quot;&gt;调度器&lt;/span&gt;" style="text;strokeColor=none;align=center;fillColor=none;html=1;verticalAlign=middle;whiteSpace=wrap;rounded=0;container=0;" vertex="1" parent="1">
          <mxGeometry x="154" y="301" width="106" height="30" as="geometry" />
        </mxCell>
        <mxCell id="dmqp8DJoeUCVNRRBBs8O-10" style="edgeStyle=orthogonalEdgeStyle;rounded=0;orthogonalLoop=1;jettySize=auto;html=1;exitX=1;exitY=0.5;exitDx=0;exitDy=0;" edge="1" parent="1" source="dmqp8DJoeUCVNRRBBs8O-3">
          <mxGeometry relative="1" as="geometry">
            <mxPoint x="700" y="380" as="targetPoint" />
          </mxGeometry>
        </mxCell>
        <mxCell id="dmqp8DJoeUCVNRRBBs8O-3" value="&lt;span style=&quot;caret-color: rgba(0, 0, 0, 0); color: rgba(0, 0, 0, 0); font-family: monospace; font-size: 0px; text-align: start; white-space: nowrap;&quot;&gt;%3CmxGraphModel%3E%3Croot%3E%3CmxCell%20id%3D%220%22%2F%3E%3CmxCell%20id%3D%221%22%20parent%3D%220%22%2F%3E%3CmxCell%20id%3D%222%22%20value%3D%22%22%20style%3D%22shape%3Dimage%3BimageAspect%3D0%3Baspect%3Dfixed%3BverticalLabelPosition%3Dbottom%3BverticalAlign%3Dtop%3Bimage%3Ddata%3Aimage%2Fsvg%2Bxml%2CPHN2ZyB4bWxucz0iaHR0cDovL3d3dy53My5vcmcvMjAwMC9zdmciIHZlcnNpb249IjEuMSIgdmlld0JveD0iMTIuMjg0MTQ5MTY5OTIxODc1IDAgMTAyMy42NzgxMDA1ODU5Mzc1IDEwMjMuOTk5ODc3OTI5Njg3NSIgaGVpZ2h0PSIxOTUuNDE5OTc2NzA0MTIwNjQiIHdpZHRoPSIxOTUuMzU4NDE2MTQyMzU0NDkiIGNsYXNzPSJpY29uIj48cGF0aCBkPSJNODU1LjI3NDAwOSA0NTQuOTkyODA5YzEwLjMyNDU0IDM1LjYwMjU3IDE1Ljg2NDk5MiA3My4yMzc5MzQgMTUuODY0OTkyIDExMi4xNjk0ODIgMCAyMjIuMDI2Mzg0LTE3OS45OTA3OTEgNDAyLjAxNzE3NS00MDIuMDEzMTg0IDQwMi4wMTcxNzUtMjIyLjAzNzMzNCAwLTQwMi4wMjgxMjUtMTc5Ljk5MDc5MS00MDIuMDI4MTI1LTQwMi4wMTcxNzUgMC0yMjIuMDIzNDE2IDE3OS45OTA3OTEtNDAyLjAxNzE3NSA0MDIuMDI4MTI1LTQwMi4wMTcxNzUgMzUuNDc5NjY0IDAgNjkuODgyMDQyIDQuNjAzMDU3IDEwMi42NTE0NDkgMTMuMjMyNzE1bDE4LjA1OTY4Mi01MS45MjIzNDFjLTM4LjQ1MjgyMi0xMC41MDg0MzgtNzguOTI2MzYzLTE2LjEyMzkwMS0xMjAuNzExMTMxLTE2LjEyMzkwMS0yNTIuMzEzMzMzIDAtNDU2Ljg0MTY1MiAyMDQuNTMxMzg5LTQ1Ni44NDE2NTIgNDU2LjgzMDcwMiAwIDI1Mi4zMDYzNzQgMjA0LjUyODQyMiA0NTYuODM3NjYxIDQ1Ni44NDE2NTIgNDU2LjgzNzY2MSAyNTIuMjk4MjkgMCA0NTYuODMzNjctMjA0LjUzMTM4OSA0NTYuODMzNjctNDU2LjgzNzY2MSAwLTQ1Ljk3ODA3My02Ljc5OTY5Mi05MC4zNjcxODEtMTkuNDM2ODEzLTEzMi4yMjM4OTFMODU1LjI3NDAwOSA0NTQuOTkyODA5ek00NjkuMTI1ODE4IDQwMi43MDA3MjljOC4xNTk4MzUgMCAxNi4xNzg4NTYgMC42MDM1NzYgMjQuMDE5OTE1IDEuNzUxODg0bDE4LjI1MzUwNi01Mi40ODA5OTJjLTEzLjY4MDQzMy0yLjY3MjI5MS0yNy44MTA1MjktNC4wODczODgtNDIuMjczNDIxLTQuMDg3Mzg4LTEyMS4xMDU4NCAwLTIxOS4yODYxNDIgOTguMTc2MjA5LTIxOS4yODYxNDIgMjE5LjI3ODA1OCAwIDEyMS4xMDk4MzEgOTguMTgwMzAyIDIxOS4yODIwNDkgMjE5LjI4NjE0MiAyMTkuMjgyMDQ5IDEyMS4xMDk4MzEgMCAyMTkuMjg2MTQyLTk4LjE3MjIxOCAyMTkuMjg2MTQyLTIxOS4yODIwNDkgMC0xNS40NDUzMTQtMS42MDU5NTMtMzAuNTEzODI3LTQuNjQzMDctNDUuMDU2NjQzbC01Mi4wMzAzMDUgMjAuMzYwMTg3YzEuMjEzMTg5IDguMDU1OTY0IDEuODQ1ODI4IDE2LjMwMjc4NCAxLjg0NTgyOCAyNC42OTY0NTYgMCA5MC44MzM4MzEtNzMuNjMxNzIyIDE2NC40NTc1NzEtMTY0LjQ1NzU3MSAxNjQuNDU3NTcxLTkwLjgyOTg0IDAtMTY0LjQ3MjYxNC03My42MjM3NC0xNjQuNDcyNjE0LTE2NC40NTc1NzFDMzA0LjY1MzMwNiA0NzYuMzMyNDUxIDM3OC4yOTQ5NTQgNDAyLjcwMDcyOSA0NjkuMTI1ODE4IDQwMi43MDA3Mjl6TTEwMzUuOTYyMzIgMjAxLjY5NjEzMiA4MzQuNTg3OTkyIDIwMS42OTYxMzIgODM0LjU4Nzk5MiAwbC01NC44MjA0ODcgNTUuNTA0MDg5IDAgMC4yMzc4NUw2MzMuOTU2MTk4IDIwMS42OTYxMzJsLTAuMzcyNzY2IDAgMCAxNjIuNDkwODFMNDMyLjU2Nzg0MyA1NjUuMTg4NTQzbDM4LjUyNzczMiAzOC41MTY3ODIgMjAxLjAxODYxNi0yMDEuMDA0NTk2TDgzNC41ODc5OTIgNDAyLjcwMDcyOWwwLTAuMjEzODY1IDAuMjAwODg1IDAuMjEzODgxIDE0NS45ODMyMjUtMTQ1Ljk5NDE3NS0wLjIwOTg5LTAuMTk2ODk0IDAuMjA5ODY4IDBMMTAzNS45NjIzMiAyMDEuNjk2MTMyek04MTMuNzAyMSAzNDcuODg0MjMzbC0xMjUuMjkxMjA0IDBMNjg4LjQxMDg5NSAyMjIuNTcwMDI2bDkxLjM1NjU2Mi05MS4zNjM1MjEgMCAxMjUuMzAyMTk3IDEyNS4zMTExOTIgMEw4MTMuNzAyMSAzNDcuODg0MjMzeiIvPjwvc3ZnPg%3D%3D%3B%22%20vertex%3D%221%22%20parent%3D%221%22%3E%3CmxGeometry%20x%3D%22510%22%20y%3D%22557.5%22%20width%3D%2235%22%20height%3D%2235%22%20as%3D%22geometry%22%2F%3E%3C%2FmxCell%3E%3C%2Froot%3E%3C%2FmxGraphModel%3E&lt;/span&gt;&lt;span style=&quot;caret-color: rgba(0, 0, 0, 0); color: rgba(0, 0, 0, 0); font-family: monospace; font-size: 0px; text-align: start; white-space: nowrap;&quot;&gt;%3CmxGraphModel%3E%3Croot%3E%3CmxCell%20id%3D%220%22%2F%3E%3CmxCell%20id%3D%221%22%20parent%3D%220%22%2F%3E%3CmxCell%20id%3D%222%22%20value%3D%22%22%20style%3D%22shape%3Dimage%3BimageAspect%3D0%3Baspect%3Dfixed%3BverticalLabelPosition%3Dbottom%3BverticalAlign%3Dtop%3Bimage%3Ddata%3Aimage%2Fsvg%2Bxml%2CPHN2ZyB4bWxucz0iaHR0cDovL3d3dy53My5vcmcvMjAwMC9zdmciIHZlcnNpb249IjEuMSIgdmlld0JveD0iMTIuMjg0MTQ5MTY5OTIxODc1IDAgMTAyMy42NzgxMDA1ODU5Mzc1IDEwMjMuOTk5ODc3OTI5Njg3NSIgaGVpZ2h0PSIxOTUuNDE5OTc2NzA0MTIwNjQiIHdpZHRoPSIxOTUuMzU4NDE2MTQyMzU0NDkiIGNsYXNzPSJpY29uIj48cGF0aCBkPSJNODU1LjI3NDAwOSA0NTQuOTkyODA5YzEwLjMyNDU0IDM1LjYwMjU3IDE1Ljg2NDk5MiA3My4yMzc5MzQgMTUuODY0OTkyIDExMi4xNjk0ODIgMCAyMjIuMDI2Mzg0LTE3OS45OTA3OTEgNDAyLjAxNzE3NS00MDIuMDEzMTg0IDQwMi4wMTcxNzUtMjIyLjAzNzMzNCAwLTQwMi4wMjgxMjUtMTc5Ljk5MDc5MS00MDIuMDI4MTI1LTQwMi4wMTcxNzUgMC0yMjIuMDIzNDE2IDE3OS45OTA3OTEtNDAyLjAxNzE3NSA0MDIuMDI4MTI1LTQwMi4wMTcxNzUgMzUuNDc5NjY0IDAgNjkuODgyMDQyIDQuNjAzMDU3IDEwMi42NTE0NDkgMTMuMjMyNzE1bDE4LjA1OTY4Mi01MS45MjIzNDFjLTM4LjQ1MjgyMi0xMC41MDg0MzgtNzguOTI2MzYzLTE2LjEyMzkwMS0xMjAuNzExMTMxLTE2LjEyMzkwMS0yNTIuMzEzMzMzIDAtNDU2Ljg0MTY1MiAyMDQuNTMxMzg5LTQ1Ni44NDE2NTIgNDU2LjgzMDcwMiAwIDI1Mi4zMDYzNzQgMjA0LjUyODQyMiA0NTYuODM3NjYxIDQ1Ni44NDE2NTIgNDU2LjgzNzY2MSAyNTIuMjk4MjkgMCA0NTYuODMzNjctMjA0LjUzMTM4OSA0NTYuODMzNjctNDU2LjgzNzY2MSAwLTQ1Ljk3ODA3My02Ljc5OTY5Mi05MC4zNjcxODEtMTkuNDM2ODEzLTEzMi4yMjM4OTFMODU1LjI3NDAwOSA0NTQuOTkyODA5ek00NjkuMTI1ODE4IDQwMi43MDA3MjljOC4xNTk4MzUgMCAxNi4xNzg4NTYgMC42MDM1NzYgMjQuMDE5OTE1IDEuNzUxODg0bDE4LjI1MzUwNi01Mi40ODA5OTJjLTEzLjY4MDQzMy0yLjY3MjI5MS0yNy44MTA1MjktNC4wODczODgtNDIuMjczNDIxLTQuMDg3Mzg4LTEyMS4xMDU4NCAwLTIxOS4yODYxNDIgOTguMTc2MjA5LTIxOS4yODYxNDIgMjE5LjI3ODA1OCAwIDEyMS4xMDk4MzEgOTguMTgwMzAyIDIxOS4yODIwNDkgMjE5LjI4NjE0MiAyMTkuMjgyMDQ5IDEyMS4xMDk4MzEgMCAyMTkuMjg2MTQyLTk4LjE3MjIxOCAyMTkuMjg2MTQyLTIxOS4yODIwNDkgMC0xNS40NDUzMTQtMS42MDU5NTMtMzAuNTEzODI3LTQuNjQzMDctNDUuMDU2NjQzbC01Mi4wMzAzMDUgMjAuMzYwMTg3YzEuMjEzMTg5IDguMDU1OTY0IDEuODQ1ODI4IDE2LjMwMjc4NCAxLjg0NTgyOCAyNC42OTY0NTYgMCA5MC44MzM4MzEtNzMuNjMxNzIyIDE2NC40NTc1NzEtMTY0LjQ1NzU3MSAxNjQuNDU3NTcxLTkwLjgyOTg0IDAtMTY0LjQ3MjYxNC03My42MjM3NC0xNjQuNDcyNjE0LTE2NC40NTc1NzFDMzA0LjY1MzMwNiA0NzYuMzMyNDUxIDM3OC4yOTQ5NTQgNDAyLjcwMDcyOSA0NjkuMTI1ODE4IDQwMi43MDA3Mjl6TTEwMzUuOTYyMzIgMjAxLjY5NjEzMiA4MzQuNTg3OTkyIDIwMS42OTYxMzIgODM0LjU4Nzk5MiAwbC01NC44MjA0ODcgNTUuNTA0MDg5IDAgMC4yMzc4NUw2MzMuOTU2MTk4IDIwMS42OTYxMzJsLTAuMzcyNzY2IDAgMCAxNjIuNDkwODFMNDMyLjU2Nzg0MyA1NjUuMTg4NTQzbDM4LjUyNzczMiAzOC41MTY3ODIgMjAxLjAxODYxNi0yMDEuMDA0NTk2TDgzNC41ODc5OTIgNDAyLjcwMDcyOWwwLTAuMjEzODY1IDAuMjAwODg1IDAuMjEzODgxIDE0NS45ODMyMjUtMTQ1Ljk5NDE3NS0wLjIwOTg5LTAuMTk2ODk0IDAuMjA5ODY4IDBMMTAzNS45NjIzMiAyMDEuNjk2MTMyek04MTMuNzAyMSAzNDcuODg0MjMzbC0xMjUuMjkxMjA0IDBMNjg4LjQxMDg5NSAyMjIuNTcwMDI2bDkxLjM1NjU2Mi05MS4zNjM1MjEgMCAxMjUuMzAyMTk3IDEyNS4zMTExOTIgMEw4MTMuNzAyMSAzNDcuODg0MjMzeiIvPjwvc3ZnPg%3D%3D%3B%22%20vertex%3D%221%22%20parent%3D%221%22%3E%3CmxGeometry%20x%3D%22510%22%20y%3D%22557.5%22%20width%3D%2235%22%20height%3D%2235%22%20as%3D%22geometry%22%2F%3E%3C%2FmxCell%3E%3C%2Froot%3E%3C%2FmxGraphModel%3E&lt;/span&gt;" style="rounded=1;whiteSpace=wrap;html=1;" vertex="1" parent="1">
          <mxGeometry x="540" y="191" width="140" height="60" as="geometry" />
        </mxCell>
        <mxCell id="dmqp8DJoeUCVNRRBBs8O-4" value="&lt;span style=&quot;caret-color: rgba(0, 0, 0, 0); color: rgba(0, 0, 0, 0); font-family: monospace; font-size: 0px; text-align: start; white-space: nowrap;&quot;&gt;%3CmxGraphModel%3E%3Croot%3E%3CmxCell%20id%3D%220%22%2F%3E%3CmxCell%20id%3D%221%22%20parent%3D%220%22%2F%3E%3CmxCell%20id%3D%222%22%20value%3D%22%22%20style%3D%22shape%3Dimage%3BimageAspect%3D0%3Baspect%3Dfixed%3BverticalLabelPosition%3Dbottom%3BverticalAlign%3Dtop%3Bimage%3Ddata%3Aimage%2Fsvg%2Bxml%2CPHN2ZyB4bWxucz0iaHR0cDovL3d3dy53My5vcmcvMjAwMC9zdmciIHZlcnNpb249IjEuMSIgdmlld0JveD0iMC4wMDE3MTMwNzAzMTk5NjU0ODE4IDEuMjgxNzg3NTE0Njg2NTg0NSAxMDgxLjc1OTUyMTQ4NDM3NSAxMDIyLjcxODIwMDY4MzU5MzgiIGhlaWdodD0iMTg4Ljg2MzI5MjcyMzg5NDEyIiB3aWR0aD0iMTk5Ljc3MDkxODA5NDk5MDc4IiBjbGFzcz0iaWNvbiI%2BPHBhdGggZD0iTTYxNC45Mzk3NjYgOTEzLjAwNjM3NmMxMDQuMjY4NDgyLTM4LjAyNzMyOSAyMDcuODM2LTc2LjA1NDY1OCAzMTIuMjc5NzI0LTExNC4wODE5ODctNS40MzI0NzYtMTcuODc0NTk3LTQuNzMxNTExLTM1LjA0ODIyOSAxLjU3NzE3LTUyLjU3MjM0NC04Ny42MjA1NzMtNDkuNzY4NDg2LTE3NC44OTA2NjUtOTkuMzYxNzMtMjYyLjg2MTcyLTE0OS40ODA2OTgtMjcuNTEyODYgNDQuNTExMjUxLTY2Ljc2Njg3NyA3MC40NDY5NDEtMTE4Ljk4ODczOSA3NC40Nzc0ODctMzEuMzY4MTY1IDIuNDUzMzc2LTYwLjgwODY3OC01LjQzMjQ3Ni04Ny42MjA1NzMtMjIuMjU1NjI2LTIxLjkwNTE0My0xMy44NDQwNTEtMzkuMDc4Nzc2LTMyLjI0NDM3MS01MS4zNDU2NTctNTUuMjAwOTYxLTEyLjQ0MjEyMS0yMy4xMzE4MzEtMTguMDQ5ODM4LTQ4LjAxNjA3NC0xNy4xNzM2MzItNzQuMTI3MDA1IDAuODc2MjA2LTI1Ljc2MDQ0OSA4LjIzNjMzNC00OS43Njg0ODYgMjIuMDgwMzg1LTcyLjU0OTgzNS04OS44OTg3MDgtNTEuMTcwNDE1LTE3OC45MjEyMTEtMTAxLjYzOTg2NS0yNjguNDY5NDM4LTE1Mi42MzUwMzktMTguMjI1MDc5IDIzLjMwNzA3My00MS44ODI2MzQgMzUuMzk4NzEyLTcxLjMyMzE0NiAzMy4yOTU4MTgtMjIuOTU2NTktMS43NTI0MTEtNDEuNzA3MzkzLTEyLjA5MTYzOS01Ni4yNTI0MDktMzAuMTQxNDc3LTI2Ljk4NzEzNy0zMy45OTY3ODMtMjAuODUzNjk2LTgzLjQxNDc4NiAxMy40OTM1NjktMTExLjEwMjg4NyAzMS4wMTc2ODMtMjQuODg0MjQzIDg4LjY3MjAyLTI2LjYzNjY1NCAxMjAuNzQxMTUgMjYuODExODk1IDIzLjgzMjc5Ni04Ljc2MjA1NyA0Ny44NDA4MzMtMTcuNTI0MTE1IDcxLjg0ODg3LTI2LjI4NjE3MiA3Ni41ODAzODEtMjguMDM4NTg0IDE1My4xNjA3NjItNTYuMDc3MTY3IDIyOS45MTYzODUtODMuOTQwNTA5IDYuNDgzOTIyLTIuMjc4MTM1IDguNDExNTc1LTQuOTA2NzUyIDcuMTg0ODg3LTExLjkxNjM5OC03LjAwOTY0Ni00Mi45MzQwODEgMjMuNDgyMzE0LTgyLjAxMjg1NyA2OS4yMjAyNTMtODkuMTk3NzQ0IDM5Ljc3OTc0LTYuMzA4NjgxIDgwLjYxMDkyOCAyNC41MzM3NjEgODYuOTE5NjA5IDY1LjE4OTcwNiA1Ljc4Mjk1OCAzOC43MjgyOTMtMTQuMzY5Nzc0IDc0LjMwMjI0Ni00OS45NDM3MjcgODcuNjIwNTc0LTM1Ljc0OTE5NCAxMy4zMTgzMjctNzQuNjUyNzI5IDAuMTc1MjQxLTk1LjMzMTE4NC0zMi45NDUzMzYtMy41MDQ4MjMtNS42MDc3MTctNi40ODM5MjItNS43ODI5NTgtMTEuOTE2Mzk4LTMuODU1MzA1LTk4LjEzNTA0MiAzNi4wOTk2NzYtMTk2LjQ0NTMyNiA3Mi4wMjQxMTEtMjk0Ljc1NTYwOSAxMDcuNzczMzA1LTUuOTU4MTk5IDIuMTAyODk0LTcuNTM1MzY5IDQuNzMxNTExLTcuMzYwMTI4IDExLjIxNTQzNCAwLjM1MDQ4MiAxMS43NDExNTctMC4xNzUyNDEgMjMuODMyNzk2LTIuNDUzMzc2IDM1LjM5ODcxMi0xLjQwMTkyOSA2LjY1OTE2NCAwIDkuMTEyNTQgNS4yNTcyMzQgMTIuMDkxNjM5IDcxLjY3MzYyOSA0MC40ODA3MDUgMTQzLjE3MjAxNyA4MS4xMzY2NTEgMjE0LjY3MDQwNSAxMjEuNzkyNTk3IDEzLjY2ODgwOSA3LjcxMDYxIDI3LjUxMjg2IDE1LjQyMTIyMSA0MS4wMDY0MjkgMjMuNDgyMzE0IDUuMjU3MjM0IDMuMTU0MzQxIDguMDYxMDkzIDIuNjI4NjE3IDEyLjI2Njg4LTEuOTI3NjUzIDI4LjkxNDc4OS0zMi40MTk2MTIgNjUuNTQwMTg5LTQ5LjI0Mjc2MiAxMDguOTk5OTkzLTQ5LjU5MzI0NSAxMDAuNTg4NDE4LTAuODc2MjA2IDE3MS45MTE1NjUgOTguMzEwMjgzIDEzOS4zMTY3MTIgMTkzLjY0MTQ2OC0yLjgwMzg1OCA4LjIzNjMzNC0xLjA1MTQ0NyAxMS4zOTA2NzUgNi4xMzM0NCAxNS40MjEyMjEgODEuMzExODkyIDQ1LjkxMzE4MSAxNjIuNDQ4NTQzIDkyLjAwMTYwMiAyNDMuNTg1MTk1IDEzOC4yNjUyNjUgMy4zMjk1ODIgMS45Mjc2NTMgNi40ODM5MjIgMy42ODAwNjQgMTAuMzM5MjI3IDUuNjA3NzE2IDEyLjQ0MjEyMS0xNi42NDc5MDkgMjcuNTEyODYtMjguMjEzODI1IDQ3LjMxNTExLTMzLjI5NTgxOCA0Mi41ODM1OTktMTAuODY0OTUxIDg3LjA5NDg1IDE2LjI5NzQyNyA5Ni41NTc4NzIgNTkuMDU2MjY3IDkuODEzNTA0IDQ0LjY4NjQ5Mi0xOS4yNzY1MjYgODguNDk2Nzc5LTYzLjc4Nzc3OCA5NS41MDY0MjUtMzIuNDE5NjEyIDUuMDgxOTkzLTU4LjUzMDU0My02LjEzMzQ0LTc3Ljk4MjMxLTMyLjI0NDM3MS00LjAzMDU0Ni01LjQzMjQ3Ni03LjE4NDg4Ny01LjYwNzcxNy0xMi43OTI2MDQtMy41MDQ4MjMtOTcuOTU5ODAxIDM1LjkyNDQzNS0xOTUuOTE5NjAyIDcxLjg0ODg3LTI5NC4wNTQ2NDQgMTA3LjQyMjgyMy04LjQxMTU3NSAyLjk3OTA5OS0xMS45MTYzOTggNS42MDc3MTctMTAuODY0OTUxIDE2LjI5NzQyNyAzLjg1NTMwNSAzOC4wMjczMjktMjUuMjM0NzI1IDc0LjgyNzk3LTYyLjkxMTU3MiA4Mi4wMTI4NTctNDAuODMxMTg3IDcuNzEwNjEtNzkuNzM0NzIyLTE1LjU5NjQ2Mi05MS42NTExMi01NC44NTA0NzktMTEuMzkwNjc1LTM3Ljg1MjA4OCA3LjM2MDEyOC03OC44NTg1MTYgNDMuMjg0NTYzLTk0LjgwNTQ2MSAzNi42MjU0LTE2LjI5NzQyNyA3OS41NTk0ODEtMy4xNTQzNDEgMTAwLjIzNzkzNiAzMS4wMTc2ODMgMS43NTI0MTEgMi40NTMzNzYgMy4zMjk1ODIgNS4yNTcyMzQgNS42MDc3MTcgOS4xMTI1NHogbS03Ni45MzA4NjQtNTE4LjAxMjgzMWMtNzEuODQ4ODctMC4xNzUyNDEtMTMwLjM3OTQxMyA1Ny42NTQzMzctMTMwLjU1NDY1NCAxMjguOTc3NDg0LTAuMTc1MjQxIDcyLjU0OTgzNSA1Ny4zMDM4NTUgMTMxLjA4MDM3OCAxMjkuMTUyNzI1IDEzMS4yNTU2MTkgNzIuMzc0NTk0IDAuMTc1MjQxIDEzMC45MDUxMzctNTcuNDc5MDk2IDEzMS4wODAzNzgtMTI5LjMyNzk2NiAwLTcyLjM3NDU5NC01Ny44Mjk1NzgtMTMwLjcyOTg5Ni0xMjkuNjc4NDQ5LTEzMC45MDUxMzd6TTQ3NS43OTgyOTUgODAuMDg1MjA0Yy0wLjE3NTI0MSAzNC41MjI1MDYgMjcuMTYyMzc4IDYyLjkxMTU3MiA2MS4zMzQ0MDIgNjMuMjYyMDU0IDM1LjIyMzQ3MSAwLjM1MDQ4MiA2My42MTI1MzYtMjYuOTg3MTM3IDYzLjk2MzAxOC02MS41MDk2NDIgMC4zNTA0ODItMzUuMDQ4MjI5LTI3LjE2MjM3OC02My40MzcyOTUtNjEuNjg0ODgzLTYzLjYxMjUzNy0zNS4yMjM0NzEtMC4xNzUyNDEtNjMuNDM3Mjk1IDI3LjE2MjM3OC02My42MTI1MzcgNjEuODYwMTI1ek0xNDEuNzg4NjY5IDI0OS4zNjgxNTJjMC0zNC44NzI5ODgtMjcuNjg4MTAxLTYyLjkxMTU3Mi02Mi4zODU4NDgtNjIuOTExNTcyLTM0Ljg3Mjk4OCAwLTYyLjczNjMzMSAyNy42ODgxMDEtNjIuNzM2MzMxIDYyLjczNjMzMSAwIDM0LjM0NzI2NSAyNy42ODgxMDEgNjIuMzg1ODQ4IDYyLjAzNTM2NiA2Mi41NjEwODkgMzUuMDQ4MjI5IDAgNjMuMDg2ODEzLTI3LjY4ODEwMSA2My4wODY4MTMtNjIuMzg1ODQ4eiBtOTIzLjUyMDg0NSA1MjYuMDczOTIzYzAuMTc1MjQxLTM1LjA0ODIyOS0yNy41MTI4Ni02My4wODY4MTMtNjIuMjEwNjA3LTYzLjI2MjA1NC0zNC44NzI5ODgtMC4xNzUyNDEtNjIuOTExNTcyIDI3LjUxMjg2LTYzLjA4NjgxMyA2Mi4zODU4NDktMC4xNzUyNDEgMzQuMzQ3MjY1IDI3LjUxMjg2IDYyLjU2MTA4OSA2MS42ODQ4ODMgNjIuNzM2MzMgMzUuMjIzNDcxIDAuMTc1MjQxIDYzLjQzNzI5NS0yNy4zMzc2MTkgNjMuNjEyNTM3LTYxLjg2MDEyNXogbS01ODYuMDA2Mzk2IDE2OC45MzI0NjZjLTAuMTc1MjQxIDM0LjUyMjUwNiAyNy4zMzc2MTkgNjIuNzM2MzMxIDYxLjUwOTY0MyA2Mi45MTE1NzIgMzUuMjIzNDcxIDAuMzUwNDgyIDYzLjQzNzI5NS0yNy4xNjIzNzggNjMuNjEyNTM2LTYxLjY4NDg4NCAwLjE3NTI0MS0zNS4wNDgyMjktMjcuMzM3NjE5LTYzLjI2MjA1NC02Mi4wMzUzNjYtNjMuNDM3Mjk1LTM0Ljg3Mjk4OC0wLjE3NTI0MS02Mi45MTE1NzIgMjcuMzM3NjE5LTYzLjA4NjgxMyA2Mi4yMTA2MDd6Ii8%2BPC9zdmc%2B%3B%22%20vertex%3D%221%22%20parent%3D%221%22%3E%3CmxGeometry%20x%3D%22646.81%22%20y%3D%22310%22%20width%3D%2242.34%22%20height%3D%2240%22%20as%3D%22geometry%22%2F%3E%3C%2FmxCell%3E%3C%2Froot%3E%3C%2FmxGraphModel%3E&lt;/span&gt;" style="rounded=1;whiteSpace=wrap;html=1;" vertex="1" parent="1">
          <mxGeometry x="540" y="271" width="140" height="60" as="geometry" />
        </mxCell>
        <mxCell id="dmqp8DJoeUCVNRRBBs8O-7" style="edgeStyle=orthogonalEdgeStyle;rounded=0;orthogonalLoop=1;jettySize=auto;html=1;exitX=1;exitY=0;exitDx=0;exitDy=0;" edge="1" parent="1" source="dmqp8DJoeUCVNRRBBs8O-5">
          <mxGeometry relative="1" as="geometry">
            <mxPoint x="541" y="231" as="targetPoint" />
            <mxPoint x="413.5" y="231.375" as="sourcePoint" />
          </mxGeometry>
        </mxCell>
        <mxCell id="dmqp8DJoeUCVNRRBBs8O-8" style="edgeStyle=orthogonalEdgeStyle;rounded=0;orthogonalLoop=1;jettySize=auto;html=1;exitX=1;exitY=1;exitDx=0;exitDy=0;" edge="1" parent="1" source="dmqp8DJoeUCVNRRBBs8O-5">
          <mxGeometry relative="1" as="geometry">
            <mxPoint x="541" y="291" as="targetPoint" />
            <mxPoint x="413.5" y="290.625" as="sourcePoint" />
          </mxGeometry>
        </mxCell>
        <mxCell id="dmqp8DJoeUCVNRRBBs8O-21" style="edgeStyle=orthogonalEdgeStyle;rounded=0;orthogonalLoop=1;jettySize=auto;html=1;exitX=0.5;exitY=0;exitDx=0;exitDy=0;entryX=0.5;entryY=1;entryDx=0;entryDy=0;" edge="1" parent="1" source="dmqp8DJoeUCVNRRBBs8O-5" target="dmqp8DJoeUCVNRRBBs8O-13">
          <mxGeometry relative="1" as="geometry" />
        </mxCell>
        <mxCell id="dmqp8DJoeUCVNRRBBs8O-5" value="记忆块&lt;div&gt;动态调度&lt;/div&gt;" style="rhombus;whiteSpace=wrap;html=1;" vertex="1" parent="1">
          <mxGeometry x="340" y="201.75" width="80" height="118.5" as="geometry" />
        </mxCell>
        <mxCell id="dmqp8DJoeUCVNRRBBs8O-18" style="edgeStyle=orthogonalEdgeStyle;rounded=0;orthogonalLoop=1;jettySize=auto;html=1;exitX=0;exitY=0.5;exitDx=0;exitDy=0;" edge="1" parent="1">
          <mxGeometry relative="1" as="geometry">
            <mxPoint x="210" y="330" as="targetPoint" />
            <mxPoint x="630" y="410" as="sourcePoint" />
          </mxGeometry>
        </mxCell>
        <mxCell id="dmqp8DJoeUCVNRRBBs8O-12" value="&lt;font style=&quot;font-size: 14px;&quot;&gt;记忆条目&lt;/font&gt;" style="rounded=1;whiteSpace=wrap;html=1;" vertex="1" parent="1">
          <mxGeometry x="630" y="380" width="120" height="60" as="geometry" />
        </mxCell>
        <mxCell id="dmqp8DJoeUCVNRRBBs8O-13" value="" style="rounded=1;whiteSpace=wrap;html=1;" vertex="1" parent="1">
          <mxGeometry x="295" y="50" width="265" height="110" as="geometry" />
        </mxCell>
        <mxCell id="dmqp8DJoeUCVNRRBBs8O-14" value="&lt;span style=&quot;font-size: 14px;&quot;&gt;下一步预测队列&lt;/span&gt;" style="text;strokeColor=none;align=center;fillColor=none;html=1;verticalAlign=middle;whiteSpace=wrap;rounded=0;container=0;" vertex="1" parent="1">
          <mxGeometry x="362" y="20" width="106" height="30" as="geometry" />
        </mxCell>
        <mxCell id="dmqp8DJoeUCVNRRBBs8O-15" value="" style="shape=image;imageAspect=0;aspect=fixed;verticalLabelPosition=bottom;verticalAlign=top;image=data:image/svg+xml,PHN2ZyB4bWxucz0iaHR0cDovL3d3dy53My5vcmcvMjAwMC9zdmciIHZlcnNpb249IjEuMSIgdmlld0JveD0iNjYuMDc2OTY1MzMyMDMxMjUgMTY4LjU4Njk3NTA5NzY1NjI1IDg5MC41MzYwMTA3NDIxODc1IDYyMC4xOTYwNDQ5MjE4NzUiIGhlaWdodD0iMTIxLjEzMjA0MDAyMzgwMzcxIiB3aWR0aD0iMTczLjkzMjgxNDU5ODA4MzUiIGNsYXNzPSJpY29uIj48cGF0aCBkPSJNNTIwLjQxNiAyNDEuNTQ2di0xOC4yMzJjLTExOC4wODggMC0yMTQuMjUxIDk0LjE3MS0yMTcuOTc5IDIxMS44MjcgMCAwLjU1NS0wLjAzIDIuODU2LTAuMDMgMi44NTZsMTguMTA5IDQuMjI0Yy0wLjAwMi0xMTAuODIyIDg5LjUxMy0yMDAuNjc1IDE5OS45LTIwMC42NzV6Ii8+PHBhdGggZD0iTTc4My45NTMgNDQyLjIyYy0zLjEwOCAwLTYuMTc5IDAuMDY0LTkuMjU0IDAuMjQ5IDAuMDkxLTMuMTA1IDAuMTU2LTYuMjQzIDAuMTU2LTkuMzggMC0xNDYuMTAzLTExNy45NjUtMjY0LjUwMi0yNjMuNTEtMjY0LjUwMi0xMzMuMzA2IDAtMjQzLjUwNSA5OS4zNi0yNjEuMDgzIDIyOC4zNTEtMTAyLjY4NSA1Ljc3NC0xODQuMTg1IDkxLjIyMS0xODQuMTg1IDE5NS43NjcgMCAxMDYuNzUgODUuMDQgMTkzLjU5MiAxOTAuODI3IDE5Ni4wMTR2MC4wNjRoNTM2LjE0OXYtMC4yMTdjOTEuMTMtNC43NTIgMTYzLjU2LTgwLjQxNiAxNjMuNTYtMTczLjA2NC0wLjAwMS05NS42OTQtNzcuMzA5LTE3My4yODItMTcyLjY2LTE3My4yODJ6IG05LjA0IDMwOS43OWwwLjA1OSAwLjMwOUgyNjUuOTc1di0wLjA2MmMtMS40OTEgMC4wNjItMy4wMTQgMC4wNjItNC41MzUgMC4wNjItODcuODM3IDAtMTU5LjAyMy03MS40NzEtMTU5LjAyMy0xNTkuNjEzIDAtODguMTggNzEuMTg3LTE1OS42MTYgMTU5LjAyMy0xNTkuNjE2IDcuNzAyIDAgMTUuMjUgMC41NTggMjIuNjQxIDEuNjE0bDAuMDk0LTEuNjE0IDAuNzEzLTIwLjc4aDAuMjJjMTAuNDM0LTExNi4xOTIgMTA3Ljc0My0yMDcuMjYgMjI2LjIzNi0yMDcuMjYgMTI1LjQ3OSAwIDIyNy4xNjkgMTAyLjA5MiAyMjcuMTY5IDIyOC4wNCAwIDE4LjYzMi0yLjIzNCAzNi43NDQtNi40MyA1NC4xMDVsNi40OTItMS41MjMtMC4wMyAwLjc3NWExMjUuNjIxIDEyNS42MjEgMCAwIDEgMTAuNzc1LTMuMjkxbDYuNzcxLTEuNjE3YTEzNy41OTcgMTM3LjU5NyAwIDAgMSAyNy44NjItMi44NTZjNzUuMjU3IDAgMTM2LjMxOCA2MS4yNTEgMTM2LjMxOCAxMzYuODE5IDAgNzIuNTIyLTU2LjIxOCAxMzEuODQ3LTEyNy4yNzggMTM2LjUwOHoiLz48cGF0aCBkPSJNNjMxLjU3NyA1MTEuODQyYy0xOS42NDQgMC0zNS45MzkgMTIuNzgyLTQyLjExNSAzMC4zMzNINDYwLjQ0MXYtNzcuMjk0aDEwMi4wODVjNi4xNzYgMTcuNTQ5IDIyLjQ3MSAzMC4zMzMgNDIuMTE1IDMwLjMzMyAyNC44ODMgMCA0NS4xMDQtMjAuMjIyIDQ1LjEwNC00NS4xMDQgMC0yNC44ODMtMjAuMjIyLTQ1LjEwNC00NS4xMDQtNDUuMTA0LTE5LjY0NCAwLTM1LjkzOSAxMi43ODItNDIuMTE1IDMwLjMzM0g0MzAuODk4djEwNi44MzdoLTg0Ljk0MWMtNi4xNzYtMTcuNTUxLTIyLjQ3My0zMC4zMzMtNDIuMTE4LTMwLjMzMy0yNC44ODMgMC00NS4xMDQgMjAuMjIyLTQ1LjEwNCA0NS4xMDQgMCAyNC44ODMgMjAuMjIyIDQ1LjEwNCA0NS4xMDQgNDUuMTA0IDE5LjY0NCAwIDM1Ljk0MS0xMi43ODQgNDIuMTE4LTMwLjMzM2g4NC45NDF2MTA2LjgzN0g1NjIuMDkyYzYuMTc2IDE3LjU0OSAyMi40NzEgMzAuMzMzIDQyLjExNSAzMC4zMzMgMjQuODgzIDAgNDUuMTA0LTIwLjIyMiA0NS4xMDQtNDUuMTA0IDAtMjQuODgzLTIwLjIyMi00NS4xMDQtNDUuMTA0LTQ1LjEwNC0xOS42NDQgMC0zNS45MzkgMTIuNzgyLTQyLjExNSAzMC4zMzNoLTEwMS42NXYtNzcuMjk0aDEyOS4wMjFjNi4xNzYgMTcuNTQ5IDIyLjQ3MSAzMC4zMzMgNDIuMTE1IDMwLjMzMyAyNC44ODMgMCA0NS4xMDQtMjAuMjIyIDQ1LjEwNC00NS4xMDQgMC0yNC44ODQtMjAuMjIyLTQ1LjEwNi00NS4xMDUtNDUuMTA2eiBtLTI2LjkzNi03Ny4yOTRjOC41NzEgMCAxNS41NjEgNi45OTEgMTUuNTYxIDE1LjU2MSAwIDguNTcxLTYuOTkxIDE1LjU2MS0xNS41NjEgMTUuNTYxLTguNTcxIDAtMTUuNTYxLTYuOTkxLTE1LjU2MS0xNS41NjFzNi45OS0xNS41NjEgMTUuNTYxLTE1LjU2MXogbS0zMDAuODAyIDEzNy45NmMtOC41NzEgMC0xNS41NjEtNi45OTEtMTUuNTYxLTE1LjU2MSAwLTguNTcxIDYuOTkxLTE1LjU2MSAxNS41NjEtMTUuNTYxIDguNTcxIDAgMTUuNTYxIDYuOTkxIDE1LjU2MSAxNS41NjEgMC4wMDEgOC41Ny02Ljk5IDE1LjU2MS0xNS41NjEgMTUuNTYxeiBtMzAwLjM2OCA3NS43MTNjOC41NzEgMCAxNS41NjEgNi45OTEgMTUuNTYxIDE1LjU2MSAwIDguNTcxLTYuOTkxIDE1LjU2MS0xNS41NjEgMTUuNTYxLTguNTcxIDAtMTUuNTYxLTYuOTkxLTE1LjU2MS0xNS41NjEtMC4wMDEtOC41NyA2Ljk5LTE1LjU2MSAxNS41NjEtMTUuNTYxeiBtMjcuMzctNzUuNzEzYy04LjU3MSAwLTE1LjU2MS02Ljk5MS0xNS41NjEtMTUuNTYxIDAtOC41NzEgNi45OTEtMTUuNTYxIDE1LjU2MS0xNS41NjEgOC41NzEgMCAxNS41NjEgNi45OTEgMTUuNTYxIDE1LjU2MSAwLjAwMSA4LjU3LTYuOTkgMTUuNTYxLTE1LjU2MSAxNS41NjF6Ii8+PC9zdmc+;" vertex="1" parent="1">
          <mxGeometry x="305" y="60" width="44.32" height="31" as="geometry" />
        </mxCell>
        <mxCell id="dmqp8DJoeUCVNRRBBs8O-23" value="" style="shape=image;imageAspect=0;aspect=fixed;verticalLabelPosition=bottom;verticalAlign=top;image=data:image/svg+xml,PHN2ZyB4bWxucz0iaHR0cDovL3d3dy53My5vcmcvMjAwMC9zdmciIHZlcnNpb249IjEuMSIgdmlld0JveD0iNjYuMDc2OTY1MzMyMDMxMjUgMTY4LjU4Njk3NTA5NzY1NjI1IDg5MC41MzYwMTA3NDIxODc1IDYyMC4xOTYwNDQ5MjE4NzUiIGhlaWdodD0iMTIxLjEzMjA0MDAyMzgwMzcxIiB3aWR0aD0iMTczLjkzMjgxNDU5ODA4MzUiIGNsYXNzPSJpY29uIj48cGF0aCBkPSJNNTIwLjQxNiAyNDEuNTQ2di0xOC4yMzJjLTExOC4wODggMC0yMTQuMjUxIDk0LjE3MS0yMTcuOTc5IDIxMS44MjcgMCAwLjU1NS0wLjAzIDIuODU2LTAuMDMgMi44NTZsMTguMTA5IDQuMjI0Yy0wLjAwMi0xMTAuODIyIDg5LjUxMy0yMDAuNjc1IDE5OS45LTIwMC42NzV6Ii8+PHBhdGggZD0iTTc4My45NTMgNDQyLjIyYy0zLjEwOCAwLTYuMTc5IDAuMDY0LTkuMjU0IDAuMjQ5IDAuMDkxLTMuMTA1IDAuMTU2LTYuMjQzIDAuMTU2LTkuMzggMC0xNDYuMTAzLTExNy45NjUtMjY0LjUwMi0yNjMuNTEtMjY0LjUwMi0xMzMuMzA2IDAtMjQzLjUwNSA5OS4zNi0yNjEuMDgzIDIyOC4zNTEtMTAyLjY4NSA1Ljc3NC0xODQuMTg1IDkxLjIyMS0xODQuMTg1IDE5NS43NjcgMCAxMDYuNzUgODUuMDQgMTkzLjU5MiAxOTAuODI3IDE5Ni4wMTR2MC4wNjRoNTM2LjE0OXYtMC4yMTdjOTEuMTMtNC43NTIgMTYzLjU2LTgwLjQxNiAxNjMuNTYtMTczLjA2NC0wLjAwMS05NS42OTQtNzcuMzA5LTE3My4yODItMTcyLjY2LTE3My4yODJ6IG05LjA0IDMwOS43OWwwLjA1OSAwLjMwOUgyNjUuOTc1di0wLjA2MmMtMS40OTEgMC4wNjItMy4wMTQgMC4wNjItNC41MzUgMC4wNjItODcuODM3IDAtMTU5LjAyMy03MS40NzEtMTU5LjAyMy0xNTkuNjEzIDAtODguMTggNzEuMTg3LTE1OS42MTYgMTU5LjAyMy0xNTkuNjE2IDcuNzAyIDAgMTUuMjUgMC41NTggMjIuNjQxIDEuNjE0bDAuMDk0LTEuNjE0IDAuNzEzLTIwLjc4aDAuMjJjMTAuNDM0LTExNi4xOTIgMTA3Ljc0My0yMDcuMjYgMjI2LjIzNi0yMDcuMjYgMTI1LjQ3OSAwIDIyNy4xNjkgMTAyLjA5MiAyMjcuMTY5IDIyOC4wNCAwIDE4LjYzMi0yLjIzNCAzNi43NDQtNi40MyA1NC4xMDVsNi40OTItMS41MjMtMC4wMyAwLjc3NWExMjUuNjIxIDEyNS42MjEgMCAwIDEgMTAuNzc1LTMuMjkxbDYuNzcxLTEuNjE3YTEzNy41OTcgMTM3LjU5NyAwIDAgMSAyNy44NjItMi44NTZjNzUuMjU3IDAgMTM2LjMxOCA2MS4yNTEgMTM2LjMxOCAxMzYuODE5IDAgNzIuNTIyLTU2LjIxOCAxMzEuODQ3LTEyNy4yNzggMTM2LjUwOHoiLz48cGF0aCBkPSJNNjMxLjU3NyA1MTEuODQyYy0xOS42NDQgMC0zNS45MzkgMTIuNzgyLTQyLjExNSAzMC4zMzNINDYwLjQ0MXYtNzcuMjk0aDEwMi4wODVjNi4xNzYgMTcuNTQ5IDIyLjQ3MSAzMC4zMzMgNDIuMTE1IDMwLjMzMyAyNC44ODMgMCA0NS4xMDQtMjAuMjIyIDQ1LjEwNC00NS4xMDQgMC0yNC44ODMtMjAuMjIyLTQ1LjEwNC00NS4xMDQtNDUuMTA0LTE5LjY0NCAwLTM1LjkzOSAxMi43ODItNDIuMTE1IDMwLjMzM0g0MzAuODk4djEwNi44MzdoLTg0Ljk0MWMtNi4xNzYtMTcuNTUxLTIyLjQ3My0zMC4zMzMtNDIuMTE4LTMwLjMzMy0yNC44ODMgMC00NS4xMDQgMjAuMjIyLTQ1LjEwNCA0NS4xMDQgMCAyNC44ODMgMjAuMjIyIDQ1LjEwNCA0NS4xMDQgNDUuMTA0IDE5LjY0NCAwIDM1Ljk0MS0xMi43ODQgNDIuMTE4LTMwLjMzM2g4NC45NDF2MTA2LjgzN0g1NjIuMDkyYzYuMTc2IDE3LjU0OSAyMi40NzEgMzAuMzMzIDQyLjExNSAzMC4zMzMgMjQuODgzIDAgNDUuMTA0LTIwLjIyMiA0NS4xMDQtNDUuMTA0IDAtMjQuODgzLTIwLjIyMi00NS4xMDQtNDUuMTA0LTQ1LjEwNC0xOS42NDQgMC0zNS45MzkgMTIuNzgyLTQyLjExNSAzMC4zMzNoLTEwMS42NXYtNzcuMjk0aDEyOS4wMjFjNi4xNzYgMTcuNTQ5IDIyLjQ3MSAzMC4zMzMgNDIuMTE1IDMwLjMzMyAyNC44ODMgMCA0NS4xMDQtMjAuMjIyIDQ1LjEwNC00NS4xMDQgMC0yNC44ODQtMjAuMjIyLTQ1LjEwNi00NS4xMDUtNDUuMTA2eiBtLTI2LjkzNi03Ny4yOTRjOC41NzEgMCAxNS41NjEgNi45OTEgMTUuNTYxIDE1LjU2MSAwIDguNTcxLTYuOTkxIDE1LjU2MS0xNS41NjEgMTUuNTYxLTguNTcxIDAtMTUuNTYxLTYuOTkxLTE1LjU2MS0xNS41NjFzNi45OS0xNS41NjEgMTUuNTYxLTE1LjU2MXogbS0zMDAuODAyIDEzNy45NmMtOC41NzEgMC0xNS41NjEtNi45OTEtMTUuNTYxLTE1LjU2MSAwLTguNTcxIDYuOTkxLTE1LjU2MSAxNS41NjEtMTUuNTYxIDguNTcxIDAgMTUuNTYxIDYuOTkxIDE1LjU2MSAxNS41NjEgMC4wMDEgOC41Ny02Ljk5IDE1LjU2MS0xNS41NjEgMTUuNTYxeiBtMzAwLjM2OCA3NS43MTNjOC41NzEgMCAxNS41NjEgNi45OTEgMTUuNTYxIDE1LjU2MSAwIDguNTcxLTYuOTkxIDE1LjU2MS0xNS41NjEgMTUuNTYxLTguNTcxIDAtMTUuNTYxLTYuOTkxLTE1LjU2MS0xNS41NjEtMC4wMDEtOC41NyA2Ljk5LTE1LjU2MSAxNS41NjEtMTUuNTYxeiBtMjcuMzctNzUuNzEzYy04LjU3MSAwLTE1LjU2MS02Ljk5MS0xNS41NjEtMTUuNTYxIDAtOC41NzEgNi45OTEtMTUuNTYxIDE1LjU2MS0xNS41NjEgOC41NzEgMCAxNS41NjEgNi45OTEgMTUuNTYxIDE1LjU2MSAwLjAwMSA4LjU3LTYuOTkgMTUuNTYxLTE1LjU2MSAxNS41NjF6Ii8+PC9zdmc+;" vertex="1" parent="1">
          <mxGeometry x="305" y="114.5" width="44.32" height="31" as="geometry" />
        </mxCell>
        <mxCell id="dmqp8DJoeUCVNRRBBs8O-25" value="" style="shape=cube;whiteSpace=wrap;html=1;boundedLbl=1;backgroundOutline=1;darkOpacity=0.05;darkOpacity2=0.1;" vertex="1" parent="1">
          <mxGeometry x="362" y="61" width="52" height="30" as="geometry" />
        </mxCell>
        <mxCell id="dmqp8DJoeUCVNRRBBs8O-26" value="" style="shape=cube;whiteSpace=wrap;html=1;boundedLbl=1;backgroundOutline=1;darkOpacity=0.05;darkOpacity2=0.1;" vertex="1" parent="1">
          <mxGeometry x="420" y="61" width="52" height="30" as="geometry" />
        </mxCell>
        <mxCell id="dmqp8DJoeUCVNRRBBs8O-27" value="" style="shape=cube;whiteSpace=wrap;html=1;boundedLbl=1;backgroundOutline=1;darkOpacity=0.05;darkOpacity2=0.1;" vertex="1" parent="1">
          <mxGeometry x="480" y="61" width="52" height="30" as="geometry" />
        </mxCell>
        <mxCell id="dmqp8DJoeUCVNRRBBs8O-28" value="" style="shape=image;imageAspect=0;aspect=fixed;verticalLabelPosition=bottom;verticalAlign=top;image=data:image/svg+xml,PHN2ZyB4bWxucz0iaHR0cDovL3d3dy53My5vcmcvMjAwMC9zdmciIHZlcnNpb249IjEuMSIgdmlld0JveD0iMC4wMDE3MTMwNzAzMTk5NjU0ODE4IDEuMjgxNzg3NTE0Njg2NTg0NSAxMDgxLjc1OTUyMTQ4NDM3NSAxMDIyLjcxODIwMDY4MzU5MzgiIGhlaWdodD0iMTg4Ljg2MzI5MjcyMzg5NDEyIiB3aWR0aD0iMTk5Ljc3MDkxODA5NDk5MDc4IiBjbGFzcz0iaWNvbiI+PHBhdGggZD0iTTYxNC45Mzk3NjYgOTEzLjAwNjM3NmMxMDQuMjY4NDgyLTM4LjAyNzMyOSAyMDcuODM2LTc2LjA1NDY1OCAzMTIuMjc5NzI0LTExNC4wODE5ODctNS40MzI0NzYtMTcuODc0NTk3LTQuNzMxNTExLTM1LjA0ODIyOSAxLjU3NzE3LTUyLjU3MjM0NC04Ny42MjA1NzMtNDkuNzY4NDg2LTE3NC44OTA2NjUtOTkuMzYxNzMtMjYyLjg2MTcyLTE0OS40ODA2OTgtMjcuNTEyODYgNDQuNTExMjUxLTY2Ljc2Njg3NyA3MC40NDY5NDEtMTE4Ljk4ODczOSA3NC40Nzc0ODctMzEuMzY4MTY1IDIuNDUzMzc2LTYwLjgwODY3OC01LjQzMjQ3Ni04Ny42MjA1NzMtMjIuMjU1NjI2LTIxLjkwNTE0My0xMy44NDQwNTEtMzkuMDc4Nzc2LTMyLjI0NDM3MS01MS4zNDU2NTctNTUuMjAwOTYxLTEyLjQ0MjEyMS0yMy4xMzE4MzEtMTguMDQ5ODM4LTQ4LjAxNjA3NC0xNy4xNzM2MzItNzQuMTI3MDA1IDAuODc2MjA2LTI1Ljc2MDQ0OSA4LjIzNjMzNC00OS43Njg0ODYgMjIuMDgwMzg1LTcyLjU0OTgzNS04OS44OTg3MDgtNTEuMTcwNDE1LTE3OC45MjEyMTEtMTAxLjYzOTg2NS0yNjguNDY5NDM4LTE1Mi42MzUwMzktMTguMjI1MDc5IDIzLjMwNzA3My00MS44ODI2MzQgMzUuMzk4NzEyLTcxLjMyMzE0NiAzMy4yOTU4MTgtMjIuOTU2NTktMS43NTI0MTEtNDEuNzA3MzkzLTEyLjA5MTYzOS01Ni4yNTI0MDktMzAuMTQxNDc3LTI2Ljk4NzEzNy0zMy45OTY3ODMtMjAuODUzNjk2LTgzLjQxNDc4NiAxMy40OTM1NjktMTExLjEwMjg4NyAzMS4wMTc2ODMtMjQuODg0MjQzIDg4LjY3MjAyLTI2LjYzNjY1NCAxMjAuNzQxMTUgMjYuODExODk1IDIzLjgzMjc5Ni04Ljc2MjA1NyA0Ny44NDA4MzMtMTcuNTI0MTE1IDcxLjg0ODg3LTI2LjI4NjE3MiA3Ni41ODAzODEtMjguMDM4NTg0IDE1My4xNjA3NjItNTYuMDc3MTY3IDIyOS45MTYzODUtODMuOTQwNTA5IDYuNDgzOTIyLTIuMjc4MTM1IDguNDExNTc1LTQuOTA2NzUyIDcuMTg0ODg3LTExLjkxNjM5OC03LjAwOTY0Ni00Mi45MzQwODEgMjMuNDgyMzE0LTgyLjAxMjg1NyA2OS4yMjAyNTMtODkuMTk3NzQ0IDM5Ljc3OTc0LTYuMzA4NjgxIDgwLjYxMDkyOCAyNC41MzM3NjEgODYuOTE5NjA5IDY1LjE4OTcwNiA1Ljc4Mjk1OCAzOC43MjgyOTMtMTQuMzY5Nzc0IDc0LjMwMjI0Ni00OS45NDM3MjcgODcuNjIwNTc0LTM1Ljc0OTE5NCAxMy4zMTgzMjctNzQuNjUyNzI5IDAuMTc1MjQxLTk1LjMzMTE4NC0zMi45NDUzMzYtMy41MDQ4MjMtNS42MDc3MTctNi40ODM5MjItNS43ODI5NTgtMTEuOTE2Mzk4LTMuODU1MzA1LTk4LjEzNTA0MiAzNi4wOTk2NzYtMTk2LjQ0NTMyNiA3Mi4wMjQxMTEtMjk0Ljc1NTYwOSAxMDcuNzczMzA1LTUuOTU4MTk5IDIuMTAyODk0LTcuNTM1MzY5IDQuNzMxNTExLTcuMzYwMTI4IDExLjIxNTQzNCAwLjM1MDQ4MiAxMS43NDExNTctMC4xNzUyNDEgMjMuODMyNzk2LTIuNDUzMzc2IDM1LjM5ODcxMi0xLjQwMTkyOSA2LjY1OTE2NCAwIDkuMTEyNTQgNS4yNTcyMzQgMTIuMDkxNjM5IDcxLjY3MzYyOSA0MC40ODA3MDUgMTQzLjE3MjAxNyA4MS4xMzY2NTEgMjE0LjY3MDQwNSAxMjEuNzkyNTk3IDEzLjY2ODgwOSA3LjcxMDYxIDI3LjUxMjg2IDE1LjQyMTIyMSA0MS4wMDY0MjkgMjMuNDgyMzE0IDUuMjU3MjM0IDMuMTU0MzQxIDguMDYxMDkzIDIuNjI4NjE3IDEyLjI2Njg4LTEuOTI3NjUzIDI4LjkxNDc4OS0zMi40MTk2MTIgNjUuNTQwMTg5LTQ5LjI0Mjc2MiAxMDguOTk5OTkzLTQ5LjU5MzI0NSAxMDAuNTg4NDE4LTAuODc2MjA2IDE3MS45MTE1NjUgOTguMzEwMjgzIDEzOS4zMTY3MTIgMTkzLjY0MTQ2OC0yLjgwMzg1OCA4LjIzNjMzNC0xLjA1MTQ0NyAxMS4zOTA2NzUgNi4xMzM0NCAxNS40MjEyMjEgODEuMzExODkyIDQ1LjkxMzE4MSAxNjIuNDQ4NTQzIDkyLjAwMTYwMiAyNDMuNTg1MTk1IDEzOC4yNjUyNjUgMy4zMjk1ODIgMS45Mjc2NTMgNi40ODM5MjIgMy42ODAwNjQgMTAuMzM5MjI3IDUuNjA3NzE2IDEyLjQ0MjEyMS0xNi42NDc5MDkgMjcuNTEyODYtMjguMjEzODI1IDQ3LjMxNTExLTMzLjI5NTgxOCA0Mi41ODM1OTktMTAuODY0OTUxIDg3LjA5NDg1IDE2LjI5NzQyNyA5Ni41NTc4NzIgNTkuMDU2MjY3IDkuODEzNTA0IDQ0LjY4NjQ5Mi0xOS4yNzY1MjYgODguNDk2Nzc5LTYzLjc4Nzc3OCA5NS41MDY0MjUtMzIuNDE5NjEyIDUuMDgxOTkzLTU4LjUzMDU0My02LjEzMzQ0LTc3Ljk4MjMxLTMyLjI0NDM3MS00LjAzMDU0Ni01LjQzMjQ3Ni03LjE4NDg4Ny01LjYwNzcxNy0xMi43OTI2MDQtMy41MDQ4MjMtOTcuOTU5ODAxIDM1LjkyNDQzNS0xOTUuOTE5NjAyIDcxLjg0ODg3LTI5NC4wNTQ2NDQgMTA3LjQyMjgyMy04LjQxMTU3NSAyLjk3OTA5OS0xMS45MTYzOTggNS42MDc3MTctMTAuODY0OTUxIDE2LjI5NzQyNyAzLjg1NTMwNSAzOC4wMjczMjktMjUuMjM0NzI1IDc0LjgyNzk3LTYyLjkxMTU3MiA4Mi4wMTI4NTctNDAuODMxMTg3IDcuNzEwNjEtNzkuNzM0NzIyLTE1LjU5NjQ2Mi05MS42NTExMi01NC44NTA0NzktMTEuMzkwNjc1LTM3Ljg1MjA4OCA3LjM2MDEyOC03OC44NTg1MTYgNDMuMjg0NTYzLTk0LjgwNTQ2MSAzNi42MjU0LTE2LjI5NzQyNyA3OS41NTk0ODEtMy4xNTQzNDEgMTAwLjIzNzkzNiAzMS4wMTc2ODMgMS43NTI0MTEgMi40NTMzNzYgMy4zMjk1ODIgNS4yNTcyMzQgNS42MDc3MTcgOS4xMTI1NHogbS03Ni45MzA4NjQtNTE4LjAxMjgzMWMtNzEuODQ4ODctMC4xNzUyNDEtMTMwLjM3OTQxMyA1Ny42NTQzMzctMTMwLjU1NDY1NCAxMjguOTc3NDg0LTAuMTc1MjQxIDcyLjU0OTgzNSA1Ny4zMDM4NTUgMTMxLjA4MDM3OCAxMjkuMTUyNzI1IDEzMS4yNTU2MTkgNzIuMzc0NTk0IDAuMTc1MjQxIDEzMC45MDUxMzctNTcuNDc5MDk2IDEzMS4wODAzNzgtMTI5LjMyNzk2NiAwLTcyLjM3NDU5NC01Ny44Mjk1NzgtMTMwLjcyOTg5Ni0xMjkuNjc4NDQ5LTEzMC45MDUxMzd6TTQ3NS43OTgyOTUgODAuMDg1MjA0Yy0wLjE3NTI0MSAzNC41MjI1MDYgMjcuMTYyMzc4IDYyLjkxMTU3MiA2MS4zMzQ0MDIgNjMuMjYyMDU0IDM1LjIyMzQ3MSAwLjM1MDQ4MiA2My42MTI1MzYtMjYuOTg3MTM3IDYzLjk2MzAxOC02MS41MDk2NDIgMC4zNTA0ODItMzUuMDQ4MjI5LTI3LjE2MjM3OC02My40MzcyOTUtNjEuNjg0ODgzLTYzLjYxMjUzNy0zNS4yMjM0NzEtMC4xNzUyNDEtNjMuNDM3Mjk1IDI3LjE2MjM3OC02My42MTI1MzcgNjEuODYwMTI1ek0xNDEuNzg4NjY5IDI0OS4zNjgxNTJjMC0zNC44NzI5ODgtMjcuNjg4MTAxLTYyLjkxMTU3Mi02Mi4zODU4NDgtNjIuOTExNTcyLTM0Ljg3Mjk4OCAwLTYyLjczNjMzMSAyNy42ODgxMDEtNjIuNzM2MzMxIDYyLjczNjMzMSAwIDM0LjM0NzI2NSAyNy42ODgxMDEgNjIuMzg1ODQ4IDYyLjAzNTM2NiA2Mi41NjEwODkgMzUuMDQ4MjI5IDAgNjMuMDg2ODEzLTI3LjY4ODEwMSA2My4wODY4MTMtNjIuMzg1ODQ4eiBtOTIzLjUyMDg0NSA1MjYuMDczOTIzYzAuMTc1MjQxLTM1LjA0ODIyOS0yNy41MTI4Ni02My4wODY4MTMtNjIuMjEwNjA3LTYzLjI2MjA1NC0zNC44NzI5ODgtMC4xNzUyNDEtNjIuOTExNTcyIDI3LjUxMjg2LTYzLjA4NjgxMyA2Mi4zODU4NDktMC4xNzUyNDEgMzQuMzQ3MjY1IDI3LjUxMjg2IDYyLjU2MTA4OSA2MS42ODQ4ODMgNjIuNzM2MzMgMzUuMjIzNDcxIDAuMTc1MjQxIDYzLjQzNzI5NS0yNy4zMzc2MTkgNjMuNjEyNTM3LTYxLjg2MDEyNXogbS01ODYuMDA2Mzk2IDE2OC45MzI0NjZjLTAuMTc1MjQxIDM0LjUyMjUwNiAyNy4zMzc2MTkgNjIuNzM2MzMxIDYxLjUwOTY0MyA2Mi45MTE1NzIgMzUuMjIzNDcxIDAuMzUwNDgyIDYzLjQzNzI5NS0yNy4xNjIzNzggNjMuNjEyNTM2LTYxLjY4NDg4NCAwLjE3NTI0MS0zNS4wNDgyMjktMjcuMzM3NjE5LTYzLjI2MjA1NC02Mi4wMzUzNjYtNjMuNDM3Mjk1LTM0Ljg3Mjk4OC0wLjE3NTI0MS02Mi45MTE1NzIgMjcuMzM3NjE5LTYzLjA4NjgxMyA2Mi4yMTA2MDd6Ii8+PC9zdmc+;" vertex="1" parent="1">
          <mxGeometry x="371" y="105.5" width="42.34" height="40" as="geometry" />
        </mxCell>
        <mxCell id="dmqp8DJoeUCVNRRBBs8O-29" value="" style="shape=image;imageAspect=0;aspect=fixed;verticalLabelPosition=bottom;verticalAlign=top;image=data:image/svg+xml,PHN2ZyB4bWxucz0iaHR0cDovL3d3dy53My5vcmcvMjAwMC9zdmciIHZlcnNpb249IjEuMSIgdmlld0JveD0iMC4wMDE3MTMwNzAzMTk5NjU0ODE4IDEuMjgxNzg3NTE0Njg2NTg0NSAxMDgxLjc1OTUyMTQ4NDM3NSAxMDIyLjcxODIwMDY4MzU5MzgiIGhlaWdodD0iMTg4Ljg2MzI5MjcyMzg5NDEyIiB3aWR0aD0iMTk5Ljc3MDkxODA5NDk5MDc4IiBjbGFzcz0iaWNvbiI+PHBhdGggZD0iTTYxNC45Mzk3NjYgOTEzLjAwNjM3NmMxMDQuMjY4NDgyLTM4LjAyNzMyOSAyMDcuODM2LTc2LjA1NDY1OCAzMTIuMjc5NzI0LTExNC4wODE5ODctNS40MzI0NzYtMTcuODc0NTk3LTQuNzMxNTExLTM1LjA0ODIyOSAxLjU3NzE3LTUyLjU3MjM0NC04Ny42MjA1NzMtNDkuNzY4NDg2LTE3NC44OTA2NjUtOTkuMzYxNzMtMjYyLjg2MTcyLTE0OS40ODA2OTgtMjcuNTEyODYgNDQuNTExMjUxLTY2Ljc2Njg3NyA3MC40NDY5NDEtMTE4Ljk4ODczOSA3NC40Nzc0ODctMzEuMzY4MTY1IDIuNDUzMzc2LTYwLjgwODY3OC01LjQzMjQ3Ni04Ny42MjA1NzMtMjIuMjU1NjI2LTIxLjkwNTE0My0xMy44NDQwNTEtMzkuMDc4Nzc2LTMyLjI0NDM3MS01MS4zNDU2NTctNTUuMjAwOTYxLTEyLjQ0MjEyMS0yMy4xMzE4MzEtMTguMDQ5ODM4LTQ4LjAxNjA3NC0xNy4xNzM2MzItNzQuMTI3MDA1IDAuODc2MjA2LTI1Ljc2MDQ0OSA4LjIzNjMzNC00OS43Njg0ODYgMjIuMDgwMzg1LTcyLjU0OTgzNS04OS44OTg3MDgtNTEuMTcwNDE1LTE3OC45MjEyMTEtMTAxLjYzOTg2NS0yNjguNDY5NDM4LTE1Mi42MzUwMzktMTguMjI1MDc5IDIzLjMwNzA3My00MS44ODI2MzQgMzUuMzk4NzEyLTcxLjMyMzE0NiAzMy4yOTU4MTgtMjIuOTU2NTktMS43NTI0MTEtNDEuNzA3MzkzLTEyLjA5MTYzOS01Ni4yNTI0MDktMzAuMTQxNDc3LTI2Ljk4NzEzNy0zMy45OTY3ODMtMjAuODUzNjk2LTgzLjQxNDc4NiAxMy40OTM1NjktMTExLjEwMjg4NyAzMS4wMTc2ODMtMjQuODg0MjQzIDg4LjY3MjAyLTI2LjYzNjY1NCAxMjAuNzQxMTUgMjYuODExODk1IDIzLjgzMjc5Ni04Ljc2MjA1NyA0Ny44NDA4MzMtMTcuNTI0MTE1IDcxLjg0ODg3LTI2LjI4NjE3MiA3Ni41ODAzODEtMjguMDM4NTg0IDE1My4xNjA3NjItNTYuMDc3MTY3IDIyOS45MTYzODUtODMuOTQwNTA5IDYuNDgzOTIyLTIuMjc4MTM1IDguNDExNTc1LTQuOTA2NzUyIDcuMTg0ODg3LTExLjkxNjM5OC03LjAwOTY0Ni00Mi45MzQwODEgMjMuNDgyMzE0LTgyLjAxMjg1NyA2OS4yMjAyNTMtODkuMTk3NzQ0IDM5Ljc3OTc0LTYuMzA4NjgxIDgwLjYxMDkyOCAyNC41MzM3NjEgODYuOTE5NjA5IDY1LjE4OTcwNiA1Ljc4Mjk1OCAzOC43MjgyOTMtMTQuMzY5Nzc0IDc0LjMwMjI0Ni00OS45NDM3MjcgODcuNjIwNTc0LTM1Ljc0OTE5NCAxMy4zMTgzMjctNzQuNjUyNzI5IDAuMTc1MjQxLTk1LjMzMTE4NC0zMi45NDUzMzYtMy41MDQ4MjMtNS42MDc3MTctNi40ODM5MjItNS43ODI5NTgtMTEuOTE2Mzk4LTMuODU1MzA1LTk4LjEzNTA0MiAzNi4wOTk2NzYtMTk2LjQ0NTMyNiA3Mi4wMjQxMTEtMjk0Ljc1NTYwOSAxMDcuNzczMzA1LTUuOTU4MTk5IDIuMTAyODk0LTcuNTM1MzY5IDQuNzMxNTExLTcuMzYwMTI4IDExLjIxNTQzNCAwLjM1MDQ4MiAxMS43NDExNTctMC4xNzUyNDEgMjMuODMyNzk2LTIuNDUzMzc2IDM1LjM5ODcxMi0xLjQwMTkyOSA2LjY1OTE2NCAwIDkuMTEyNTQgNS4yNTcyMzQgMTIuMDkxNjM5IDcxLjY3MzYyOSA0MC40ODA3MDUgMTQzLjE3MjAxNyA4MS4xMzY2NTEgMjE0LjY3MDQwNSAxMjEuNzkyNTk3IDEzLjY2ODgwOSA3LjcxMDYxIDI3LjUxMjg2IDE1LjQyMTIyMSA0MS4wMDY0MjkgMjMuNDgyMzE0IDUuMjU3MjM0IDMuMTU0MzQxIDguMDYxMDkzIDIuNjI4NjE3IDEyLjI2Njg4LTEuOTI3NjUzIDI4LjkxNDc4OS0zMi40MTk2MTIgNjUuNTQwMTg5LTQ5LjI0Mjc2MiAxMDguOTk5OTkzLTQ5LjU5MzI0NSAxMDAuNTg4NDE4LTAuODc2MjA2IDE3MS45MTE1NjUgOTguMzEwMjgzIDEzOS4zMTY3MTIgMTkzLjY0MTQ2OC0yLjgwMzg1OCA4LjIzNjMzNC0xLjA1MTQ0NyAxMS4zOTA2NzUgNi4xMzM0NCAxNS40MjEyMjEgODEuMzExODkyIDQ1LjkxMzE4MSAxNjIuNDQ4NTQzIDkyLjAwMTYwMiAyNDMuNTg1MTk1IDEzOC4yNjUyNjUgMy4zMjk1ODIgMS45Mjc2NTMgNi40ODM5MjIgMy42ODAwNjQgMTAuMzM5MjI3IDUuNjA3NzE2IDEyLjQ0MjEyMS0xNi42NDc5MDkgMjcuNTEyODYtMjguMjEzODI1IDQ3LjMxNTExLTMzLjI5NTgxOCA0Mi41ODM1OTktMTAuODY0OTUxIDg3LjA5NDg1IDE2LjI5NzQyNyA5Ni41NTc4NzIgNTkuMDU2MjY3IDkuODEzNTA0IDQ0LjY4NjQ5Mi0xOS4yNzY1MjYgODguNDk2Nzc5LTYzLjc4Nzc3OCA5NS41MDY0MjUtMzIuNDE5NjEyIDUuMDgxOTkzLTU4LjUzMDU0My02LjEzMzQ0LTc3Ljk4MjMxLTMyLjI0NDM3MS00LjAzMDU0Ni01LjQzMjQ3Ni03LjE4NDg4Ny01LjYwNzcxNy0xMi43OTI2MDQtMy41MDQ4MjMtOTcuOTU5ODAxIDM1LjkyNDQzNS0xOTUuOTE5NjAyIDcxLjg0ODg3LTI5NC4wNTQ2NDQgMTA3LjQyMjgyMy04LjQxMTU3NSAyLjk3OTA5OS0xMS45MTYzOTggNS42MDc3MTctMTAuODY0OTUxIDE2LjI5NzQyNyAzLjg1NTMwNSAzOC4wMjczMjktMjUuMjM0NzI1IDc0LjgyNzk3LTYyLjkxMTU3MiA4Mi4wMTI4NTctNDAuODMxMTg3IDcuNzEwNjEtNzkuNzM0NzIyLTE1LjU5NjQ2Mi05MS42NTExMi01NC44NTA0NzktMTEuMzkwNjc1LTM3Ljg1MjA4OCA3LjM2MDEyOC03OC44NTg1MTYgNDMuMjg0NTYzLTk0LjgwNTQ2MSAzNi42MjU0LTE2LjI5NzQyNyA3OS41NTk0ODEtMy4xNTQzNDEgMTAwLjIzNzkzNiAzMS4wMTc2ODMgMS43NTI0MTEgMi40NTMzNzYgMy4zMjk1ODIgNS4yNTcyMzQgNS42MDc3MTcgOS4xMTI1NHogbS03Ni45MzA4NjQtNTE4LjAxMjgzMWMtNzEuODQ4ODctMC4xNzUyNDEtMTMwLjM3OTQxMyA1Ny42NTQzMzctMTMwLjU1NDY1NCAxMjguOTc3NDg0LTAuMTc1MjQxIDcyLjU0OTgzNSA1Ny4zMDM4NTUgMTMxLjA4MDM3OCAxMjkuMTUyNzI1IDEzMS4yNTU2MTkgNzIuMzc0NTk0IDAuMTc1MjQxIDEzMC45MDUxMzctNTcuNDc5MDk2IDEzMS4wODAzNzgtMTI5LjMyNzk2NiAwLTcyLjM3NDU5NC01Ny44Mjk1NzgtMTMwLjcyOTg5Ni0xMjkuNjc4NDQ5LTEzMC45MDUxMzd6TTQ3NS43OTgyOTUgODAuMDg1MjA0Yy0wLjE3NTI0MSAzNC41MjI1MDYgMjcuMTYyMzc4IDYyLjkxMTU3MiA2MS4zMzQ0MDIgNjMuMjYyMDU0IDM1LjIyMzQ3MSAwLjM1MDQ4MiA2My42MTI1MzYtMjYuOTg3MTM3IDYzLjk2MzAxOC02MS41MDk2NDIgMC4zNTA0ODItMzUuMDQ4MjI5LTI3LjE2MjM3OC02My40MzcyOTUtNjEuNjg0ODgzLTYzLjYxMjUzNy0zNS4yMjM0NzEtMC4xNzUyNDEtNjMuNDM3Mjk1IDI3LjE2MjM3OC02My42MTI1MzcgNjEuODYwMTI1ek0xNDEuNzg4NjY5IDI0OS4zNjgxNTJjMC0zNC44NzI5ODgtMjcuNjg4MTAxLTYyLjkxMTU3Mi02Mi4zODU4NDgtNjIuOTExNTcyLTM0Ljg3Mjk4OCAwLTYyLjczNjMzMSAyNy42ODgxMDEtNjIuNzM2MzMxIDYyLjczNjMzMSAwIDM0LjM0NzI2NSAyNy42ODgxMDEgNjIuMzg1ODQ4IDYyLjAzNTM2NiA2Mi41NjEwODkgMzUuMDQ4MjI5IDAgNjMuMDg2ODEzLTI3LjY4ODEwMSA2My4wODY4MTMtNjIuMzg1ODQ4eiBtOTIzLjUyMDg0NSA1MjYuMDczOTIzYzAuMTc1MjQxLTM1LjA0ODIyOS0yNy41MTI4Ni02My4wODY4MTMtNjIuMjEwNjA3LTYzLjI2MjA1NC0zNC44NzI5ODgtMC4xNzUyNDEtNjIuOTExNTcyIDI3LjUxMjg2LTYzLjA4NjgxMyA2Mi4zODU4NDktMC4xNzUyNDEgMzQuMzQ3MjY1IDI3LjUxMjg2IDYyLjU2MTA4OSA2MS42ODQ4ODMgNjIuNzM2MzMgMzUuMjIzNDcxIDAuMTc1MjQxIDYzLjQzNzI5NS0yNy4zMzc2MTkgNjMuNjEyNTM3LTYxLjg2MDEyNXogbS01ODYuMDA2Mzk2IDE2OC45MzI0NjZjLTAuMTc1MjQxIDM0LjUyMjUwNiAyNy4zMzc2MTkgNjIuNzM2MzMxIDYxLjUwOTY0MyA2Mi45MTE1NzIgMzUuMjIzNDcxIDAuMzUwNDgyIDYzLjQzNzI5NS0yNy4xNjIzNzggNjMuNjEyNTM2LTYxLjY4NDg4NCAwLjE3NTI0MS0zNS4wNDgyMjktMjcuMzM3NjE5LTYzLjI2MjA1NC02Mi4wMzUzNjYtNjMuNDM3Mjk1LTM0Ljg3Mjk4OC0wLjE3NTI0MS02Mi45MTE1NzIgMjcuMzM3NjE5LTYzLjA4NjgxMyA2Mi4yMTA2MDd6Ii8+PC9zdmc+;" vertex="1" parent="1">
          <mxGeometry x="424.83" y="105.5" width="42.34" height="40" as="geometry" />
        </mxCell>
        <mxCell id="dmqp8DJoeUCVNRRBBs8O-30" value="" style="shape=image;imageAspect=0;aspect=fixed;verticalLabelPosition=bottom;verticalAlign=top;image=data:image/svg+xml,PHN2ZyB4bWxucz0iaHR0cDovL3d3dy53My5vcmcvMjAwMC9zdmciIHZlcnNpb249IjEuMSIgdmlld0JveD0iMC4wMDE3MTMwNzAzMTk5NjU0ODE4IDEuMjgxNzg3NTE0Njg2NTg0NSAxMDgxLjc1OTUyMTQ4NDM3NSAxMDIyLjcxODIwMDY4MzU5MzgiIGhlaWdodD0iMTg4Ljg2MzI5MjcyMzg5NDEyIiB3aWR0aD0iMTk5Ljc3MDkxODA5NDk5MDc4IiBjbGFzcz0iaWNvbiI+PHBhdGggZD0iTTYxNC45Mzk3NjYgOTEzLjAwNjM3NmMxMDQuMjY4NDgyLTM4LjAyNzMyOSAyMDcuODM2LTc2LjA1NDY1OCAzMTIuMjc5NzI0LTExNC4wODE5ODctNS40MzI0NzYtMTcuODc0NTk3LTQuNzMxNTExLTM1LjA0ODIyOSAxLjU3NzE3LTUyLjU3MjM0NC04Ny42MjA1NzMtNDkuNzY4NDg2LTE3NC44OTA2NjUtOTkuMzYxNzMtMjYyLjg2MTcyLTE0OS40ODA2OTgtMjcuNTEyODYgNDQuNTExMjUxLTY2Ljc2Njg3NyA3MC40NDY5NDEtMTE4Ljk4ODczOSA3NC40Nzc0ODctMzEuMzY4MTY1IDIuNDUzMzc2LTYwLjgwODY3OC01LjQzMjQ3Ni04Ny42MjA1NzMtMjIuMjU1NjI2LTIxLjkwNTE0My0xMy44NDQwNTEtMzkuMDc4Nzc2LTMyLjI0NDM3MS01MS4zNDU2NTctNTUuMjAwOTYxLTEyLjQ0MjEyMS0yMy4xMzE4MzEtMTguMDQ5ODM4LTQ4LjAxNjA3NC0xNy4xNzM2MzItNzQuMTI3MDA1IDAuODc2MjA2LTI1Ljc2MDQ0OSA4LjIzNjMzNC00OS43Njg0ODYgMjIuMDgwMzg1LTcyLjU0OTgzNS04OS44OTg3MDgtNTEuMTcwNDE1LTE3OC45MjEyMTEtMTAxLjYzOTg2NS0yNjguNDY5NDM4LTE1Mi42MzUwMzktMTguMjI1MDc5IDIzLjMwNzA3My00MS44ODI2MzQgMzUuMzk4NzEyLTcxLjMyMzE0NiAzMy4yOTU4MTgtMjIuOTU2NTktMS43NTI0MTEtNDEuNzA3MzkzLTEyLjA5MTYzOS01Ni4yNTI0MDktMzAuMTQxNDc3LTI2Ljk4NzEzNy0zMy45OTY3ODMtMjAuODUzNjk2LTgzLjQxNDc4NiAxMy40OTM1NjktMTExLjEwMjg4NyAzMS4wMTc2ODMtMjQuODg0MjQzIDg4LjY3MjAyLTI2LjYzNjY1NCAxMjAuNzQxMTUgMjYuODExODk1IDIzLjgzMjc5Ni04Ljc2MjA1NyA0Ny44NDA4MzMtMTcuNTI0MTE1IDcxLjg0ODg3LTI2LjI4NjE3MiA3Ni41ODAzODEtMjguMDM4NTg0IDE1My4xNjA3NjItNTYuMDc3MTY3IDIyOS45MTYzODUtODMuOTQwNTA5IDYuNDgzOTIyLTIuMjc4MTM1IDguNDExNTc1LTQuOTA2NzUyIDcuMTg0ODg3LTExLjkxNjM5OC03LjAwOTY0Ni00Mi45MzQwODEgMjMuNDgyMzE0LTgyLjAxMjg1NyA2OS4yMjAyNTMtODkuMTk3NzQ0IDM5Ljc3OTc0LTYuMzA4NjgxIDgwLjYxMDkyOCAyNC41MzM3NjEgODYuOTE5NjA5IDY1LjE4OTcwNiA1Ljc4Mjk1OCAzOC43MjgyOTMtMTQuMzY5Nzc0IDc0LjMwMjI0Ni00OS45NDM3MjcgODcuNjIwNTc0LTM1Ljc0OTE5NCAxMy4zMTgzMjctNzQuNjUyNzI5IDAuMTc1MjQxLTk1LjMzMTE4NC0zMi45NDUzMzYtMy41MDQ4MjMtNS42MDc3MTctNi40ODM5MjItNS43ODI5NTgtMTEuOTE2Mzk4LTMuODU1MzA1LTk4LjEzNTA0MiAzNi4wOTk2NzYtMTk2LjQ0NTMyNiA3Mi4wMjQxMTEtMjk0Ljc1NTYwOSAxMDcuNzczMzA1LTUuOTU4MTk5IDIuMTAyODk0LTcuNTM1MzY5IDQuNzMxNTExLTcuMzYwMTI4IDExLjIxNTQzNCAwLjM1MDQ4MiAxMS43NDExNTctMC4xNzUyNDEgMjMuODMyNzk2LTIuNDUzMzc2IDM1LjM5ODcxMi0xLjQwMTkyOSA2LjY1OTE2NCAwIDkuMTEyNTQgNS4yNTcyMzQgMTIuMDkxNjM5IDcxLjY3MzYyOSA0MC40ODA3MDUgMTQzLjE3MjAxNyA4MS4xMzY2NTEgMjE0LjY3MDQwNSAxMjEuNzkyNTk3IDEzLjY2ODgwOSA3LjcxMDYxIDI3LjUxMjg2IDE1LjQyMTIyMSA0MS4wMDY0MjkgMjMuNDgyMzE0IDUuMjU3MjM0IDMuMTU0MzQxIDguMDYxMDkzIDIuNjI4NjE3IDEyLjI2Njg4LTEuOTI3NjUzIDI4LjkxNDc4OS0zMi40MTk2MTIgNjUuNTQwMTg5LTQ5LjI0Mjc2MiAxMDguOTk5OTkzLTQ5LjU5MzI0NSAxMDAuNTg4NDE4LTAuODc2MjA2IDE3MS45MTE1NjUgOTguMzEwMjgzIDEzOS4zMTY3MTIgMTkzLjY0MTQ2OC0yLjgwMzg1OCA4LjIzNjMzNC0xLjA1MTQ0NyAxMS4zOTA2NzUgNi4xMzM0NCAxNS40MjEyMjEgODEuMzExODkyIDQ1LjkxMzE4MSAxNjIuNDQ4NTQzIDkyLjAwMTYwMiAyNDMuNTg1MTk1IDEzOC4yNjUyNjUgMy4zMjk1ODIgMS45Mjc2NTMgNi40ODM5MjIgMy42ODAwNjQgMTAuMzM5MjI3IDUuNjA3NzE2IDEyLjQ0MjEyMS0xNi42NDc5MDkgMjcuNTEyODYtMjguMjEzODI1IDQ3LjMxNTExLTMzLjI5NTgxOCA0Mi41ODM1OTktMTAuODY0OTUxIDg3LjA5NDg1IDE2LjI5NzQyNyA5Ni41NTc4NzIgNTkuMDU2MjY3IDkuODEzNTA0IDQ0LjY4NjQ5Mi0xOS4yNzY1MjYgODguNDk2Nzc5LTYzLjc4Nzc3OCA5NS41MDY0MjUtMzIuNDE5NjEyIDUuMDgxOTkzLTU4LjUzMDU0My02LjEzMzQ0LTc3Ljk4MjMxLTMyLjI0NDM3MS00LjAzMDU0Ni01LjQzMjQ3Ni03LjE4NDg4Ny01LjYwNzcxNy0xMi43OTI2MDQtMy41MDQ4MjMtOTcuOTU5ODAxIDM1LjkyNDQzNS0xOTUuOTE5NjAyIDcxLjg0ODg3LTI5NC4wNTQ2NDQgMTA3LjQyMjgyMy04LjQxMTU3NSAyLjk3OTA5OS0xMS45MTYzOTggNS42MDc3MTctMTAuODY0OTUxIDE2LjI5NzQyNyAzLjg1NTMwNSAzOC4wMjczMjktMjUuMjM0NzI1IDc0LjgyNzk3LTYyLjkxMTU3MiA4Mi4wMTI4NTctNDAuODMxMTg3IDcuNzEwNjEtNzkuNzM0NzIyLTE1LjU5NjQ2Mi05MS42NTExMi01NC44NTA0NzktMTEuMzkwNjc1LTM3Ljg1MjA4OCA3LjM2MDEyOC03OC44NTg1MTYgNDMuMjg0NTYzLTk0LjgwNTQ2MSAzNi42MjU0LTE2LjI5NzQyNyA3OS41NTk0ODEtMy4xNTQzNDEgMTAwLjIzNzkzNiAzMS4wMTc2ODMgMS43NTI0MTEgMi40NTMzNzYgMy4zMjk1ODIgNS4yNTcyMzQgNS42MDc3MTcgOS4xMTI1NHogbS03Ni45MzA4NjQtNTE4LjAxMjgzMWMtNzEuODQ4ODctMC4xNzUyNDEtMTMwLjM3OTQxMyA1Ny42NTQzMzctMTMwLjU1NDY1NCAxMjguOTc3NDg0LTAuMTc1MjQxIDcyLjU0OTgzNSA1Ny4zMDM4NTUgMTMxLjA4MDM3OCAxMjkuMTUyNzI1IDEzMS4yNTU2MTkgNzIuMzc0NTk0IDAuMTc1MjQxIDEzMC45MDUxMzctNTcuNDc5MDk2IDEzMS4wODAzNzgtMTI5LjMyNzk2NiAwLTcyLjM3NDU5NC01Ny44Mjk1NzgtMTMwLjcyOTg5Ni0xMjkuNjc4NDQ5LTEzMC45MDUxMzd6TTQ3NS43OTgyOTUgODAuMDg1MjA0Yy0wLjE3NTI0MSAzNC41MjI1MDYgMjcuMTYyMzc4IDYyLjkxMTU3MiA2MS4zMzQ0MDIgNjMuMjYyMDU0IDM1LjIyMzQ3MSAwLjM1MDQ4MiA2My42MTI1MzYtMjYuOTg3MTM3IDYzLjk2MzAxOC02MS41MDk2NDIgMC4zNTA0ODItMzUuMDQ4MjI5LTI3LjE2MjM3OC02My40MzcyOTUtNjEuNjg0ODgzLTYzLjYxMjUzNy0zNS4yMjM0NzEtMC4xNzUyNDEtNjMuNDM3Mjk1IDI3LjE2MjM3OC02My42MTI1MzcgNjEuODYwMTI1ek0xNDEuNzg4NjY5IDI0OS4zNjgxNTJjMC0zNC44NzI5ODgtMjcuNjg4MTAxLTYyLjkxMTU3Mi02Mi4zODU4NDgtNjIuOTExNTcyLTM0Ljg3Mjk4OCAwLTYyLjczNjMzMSAyNy42ODgxMDEtNjIuNzM2MzMxIDYyLjczNjMzMSAwIDM0LjM0NzI2NSAyNy42ODgxMDEgNjIuMzg1ODQ4IDYyLjAzNTM2NiA2Mi41NjEwODkgMzUuMDQ4MjI5IDAgNjMuMDg2ODEzLTI3LjY4ODEwMSA2My4wODY4MTMtNjIuMzg1ODQ4eiBtOTIzLjUyMDg0NSA1MjYuMDczOTIzYzAuMTc1MjQxLTM1LjA0ODIyOS0yNy41MTI4Ni02My4wODY4MTMtNjIuMjEwNjA3LTYzLjI2MjA1NC0zNC44NzI5ODgtMC4xNzUyNDEtNjIuOTExNTcyIDI3LjUxMjg2LTYzLjA4NjgxMyA2Mi4zODU4NDktMC4xNzUyNDEgMzQuMzQ3MjY1IDI3LjUxMjg2IDYyLjU2MTA4OSA2MS42ODQ4ODMgNjIuNzM2MzMgMzUuMjIzNDcxIDAuMTc1MjQxIDYzLjQzNzI5NS0yNy4zMzc2MTkgNjMuNjEyNTM3LTYxLjg2MDEyNXogbS01ODYuMDA2Mzk2IDE2OC45MzI0NjZjLTAuMTc1MjQxIDM0LjUyMjUwNiAyNy4zMzc2MTkgNjIuNzM2MzMxIDYxLjUwOTY0MyA2Mi45MTE1NzIgMzUuMjIzNDcxIDAuMzUwNDgyIDYzLjQzNzI5NS0yNy4xNjIzNzggNjMuNjEyNTM2LTYxLjY4NDg4NCAwLjE3NTI0MS0zNS4wNDgyMjktMjcuMzM3NjE5LTYzLjI2MjA1NC02Mi4wMzUzNjYtNjMuNDM3Mjk1LTM0Ljg3Mjk4OC0wLjE3NTI0MS02Mi45MTE1NzIgMjcuMzM3NjE5LTYzLjA4NjgxMyA2Mi4yMTA2MDd6Ii8+PC9zdmc+;" vertex="1" parent="1">
          <mxGeometry x="484.83" y="105.5" width="42.34" height="40" as="geometry" />
        </mxCell>
        <mxCell id="dmqp8DJoeUCVNRRBBs8O-31" value="" style="shape=image;imageAspect=0;aspect=fixed;verticalLabelPosition=bottom;verticalAlign=top;image=data:image/svg+xml,PHN2ZyB4bWxucz0iaHR0cDovL3d3dy53My5vcmcvMjAwMC9zdmciIHZlcnNpb249IjEuMSIgdmlld0JveD0iMTIuMjg0MTQ5MTY5OTIxODc1IDAgMTAyMy42NzgxMDA1ODU5Mzc1IDEwMjMuOTk5ODc3OTI5Njg3NSIgaGVpZ2h0PSIxOTUuNDE5OTc2NzA0MTIwNjQiIHdpZHRoPSIxOTUuMzU4NDE2MTQyMzU0NDkiIGNsYXNzPSJpY29uIj48cGF0aCBkPSJNODU1LjI3NDAwOSA0NTQuOTkyODA5YzEwLjMyNDU0IDM1LjYwMjU3IDE1Ljg2NDk5MiA3My4yMzc5MzQgMTUuODY0OTkyIDExMi4xNjk0ODIgMCAyMjIuMDI2Mzg0LTE3OS45OTA3OTEgNDAyLjAxNzE3NS00MDIuMDEzMTg0IDQwMi4wMTcxNzUtMjIyLjAzNzMzNCAwLTQwMi4wMjgxMjUtMTc5Ljk5MDc5MS00MDIuMDI4MTI1LTQwMi4wMTcxNzUgMC0yMjIuMDIzNDE2IDE3OS45OTA3OTEtNDAyLjAxNzE3NSA0MDIuMDI4MTI1LTQwMi4wMTcxNzUgMzUuNDc5NjY0IDAgNjkuODgyMDQyIDQuNjAzMDU3IDEwMi42NTE0NDkgMTMuMjMyNzE1bDE4LjA1OTY4Mi01MS45MjIzNDFjLTM4LjQ1MjgyMi0xMC41MDg0MzgtNzguOTI2MzYzLTE2LjEyMzkwMS0xMjAuNzExMTMxLTE2LjEyMzkwMS0yNTIuMzEzMzMzIDAtNDU2Ljg0MTY1MiAyMDQuNTMxMzg5LTQ1Ni44NDE2NTIgNDU2LjgzMDcwMiAwIDI1Mi4zMDYzNzQgMjA0LjUyODQyMiA0NTYuODM3NjYxIDQ1Ni44NDE2NTIgNDU2LjgzNzY2MSAyNTIuMjk4MjkgMCA0NTYuODMzNjctMjA0LjUzMTM4OSA0NTYuODMzNjctNDU2LjgzNzY2MSAwLTQ1Ljk3ODA3My02Ljc5OTY5Mi05MC4zNjcxODEtMTkuNDM2ODEzLTEzMi4yMjM4OTFMODU1LjI3NDAwOSA0NTQuOTkyODA5ek00NjkuMTI1ODE4IDQwMi43MDA3MjljOC4xNTk4MzUgMCAxNi4xNzg4NTYgMC42MDM1NzYgMjQuMDE5OTE1IDEuNzUxODg0bDE4LjI1MzUwNi01Mi40ODA5OTJjLTEzLjY4MDQzMy0yLjY3MjI5MS0yNy44MTA1MjktNC4wODczODgtNDIuMjczNDIxLTQuMDg3Mzg4LTEyMS4xMDU4NCAwLTIxOS4yODYxNDIgOTguMTc2MjA5LTIxOS4yODYxNDIgMjE5LjI3ODA1OCAwIDEyMS4xMDk4MzEgOTguMTgwMzAyIDIxOS4yODIwNDkgMjE5LjI4NjE0MiAyMTkuMjgyMDQ5IDEyMS4xMDk4MzEgMCAyMTkuMjg2MTQyLTk4LjE3MjIxOCAyMTkuMjg2MTQyLTIxOS4yODIwNDkgMC0xNS40NDUzMTQtMS42MDU5NTMtMzAuNTEzODI3LTQuNjQzMDctNDUuMDU2NjQzbC01Mi4wMzAzMDUgMjAuMzYwMTg3YzEuMjEzMTg5IDguMDU1OTY0IDEuODQ1ODI4IDE2LjMwMjc4NCAxLjg0NTgyOCAyNC42OTY0NTYgMCA5MC44MzM4MzEtNzMuNjMxNzIyIDE2NC40NTc1NzEtMTY0LjQ1NzU3MSAxNjQuNDU3NTcxLTkwLjgyOTg0IDAtMTY0LjQ3MjYxNC03My42MjM3NC0xNjQuNDcyNjE0LTE2NC40NTc1NzFDMzA0LjY1MzMwNiA0NzYuMzMyNDUxIDM3OC4yOTQ5NTQgNDAyLjcwMDcyOSA0NjkuMTI1ODE4IDQwMi43MDA3Mjl6TTEwMzUuOTYyMzIgMjAxLjY5NjEzMiA4MzQuNTg3OTkyIDIwMS42OTYxMzIgODM0LjU4Nzk5MiAwbC01NC44MjA0ODcgNTUuNTA0MDg5IDAgMC4yMzc4NUw2MzMuOTU2MTk4IDIwMS42OTYxMzJsLTAuMzcyNzY2IDAgMCAxNjIuNDkwODFMNDMyLjU2Nzg0MyA1NjUuMTg4NTQzbDM4LjUyNzczMiAzOC41MTY3ODIgMjAxLjAxODYxNi0yMDEuMDA0NTk2TDgzNC41ODc5OTIgNDAyLjcwMDcyOWwwLTAuMjEzODY1IDAuMjAwODg1IDAuMjEzODgxIDE0NS45ODMyMjUtMTQ1Ljk5NDE3NS0wLjIwOTg5LTAuMTk2ODk0IDAuMjA5ODY4IDBMMTAzNS45NjIzMiAyMDEuNjk2MTMyek04MTMuNzAyMSAzNDcuODg0MjMzbC0xMjUuMjkxMjA0IDBMNjg4LjQxMDg5NSAyMjIuNTcwMDI2bDkxLjM1NjU2Mi05MS4zNjM1MjEgMCAxMjUuMzAyMTk3IDEyNS4zMTExOTIgMEw4MTMuNzAyMSAzNDcuODg0MjMzeiIvPjwvc3ZnPg==;" vertex="1" parent="1">
          <mxGeometry x="550" y="203.5" width="35" height="35" as="geometry" />
        </mxCell>
        <mxCell id="dmqp8DJoeUCVNRRBBs8O-32" style="edgeStyle=orthogonalEdgeStyle;rounded=0;orthogonalLoop=1;jettySize=auto;html=1;exitX=1;exitY=0.5;exitDx=0;exitDy=0;entryX=0.583;entryY=-0.017;entryDx=0;entryDy=0;entryPerimeter=0;" edge="1" parent="1" source="dmqp8DJoeUCVNRRBBs8O-4" target="dmqp8DJoeUCVNRRBBs8O-12">
          <mxGeometry relative="1" as="geometry" />
        </mxCell>
        <mxCell id="dmqp8DJoeUCVNRRBBs8O-33" value="" style="shape=image;imageAspect=0;aspect=fixed;verticalLabelPosition=bottom;verticalAlign=top;image=data:image/svg+xml,PHN2ZyB4bWxucz0iaHR0cDovL3d3dy53My5vcmcvMjAwMC9zdmciIHZlcnNpb249IjEuMSIgdmlld0JveD0iMC4wMDE3MTMwNzAzMTk5NjU0ODE4IDEuMjgxNzg3NTE0Njg2NTg0NSAxMDgxLjc1OTUyMTQ4NDM3NSAxMDIyLjcxODIwMDY4MzU5MzgiIGhlaWdodD0iMTg4Ljg2MzI5MjcyMzg5NDEyIiB3aWR0aD0iMTk5Ljc3MDkxODA5NDk5MDc4IiBjbGFzcz0iaWNvbiI+PHBhdGggZD0iTTYxNC45Mzk3NjYgOTEzLjAwNjM3NmMxMDQuMjY4NDgyLTM4LjAyNzMyOSAyMDcuODM2LTc2LjA1NDY1OCAzMTIuMjc5NzI0LTExNC4wODE5ODctNS40MzI0NzYtMTcuODc0NTk3LTQuNzMxNTExLTM1LjA0ODIyOSAxLjU3NzE3LTUyLjU3MjM0NC04Ny42MjA1NzMtNDkuNzY4NDg2LTE3NC44OTA2NjUtOTkuMzYxNzMtMjYyLjg2MTcyLTE0OS40ODA2OTgtMjcuNTEyODYgNDQuNTExMjUxLTY2Ljc2Njg3NyA3MC40NDY5NDEtMTE4Ljk4ODczOSA3NC40Nzc0ODctMzEuMzY4MTY1IDIuNDUzMzc2LTYwLjgwODY3OC01LjQzMjQ3Ni04Ny42MjA1NzMtMjIuMjU1NjI2LTIxLjkwNTE0My0xMy44NDQwNTEtMzkuMDc4Nzc2LTMyLjI0NDM3MS01MS4zNDU2NTctNTUuMjAwOTYxLTEyLjQ0MjEyMS0yMy4xMzE4MzEtMTguMDQ5ODM4LTQ4LjAxNjA3NC0xNy4xNzM2MzItNzQuMTI3MDA1IDAuODc2MjA2LTI1Ljc2MDQ0OSA4LjIzNjMzNC00OS43Njg0ODYgMjIuMDgwMzg1LTcyLjU0OTgzNS04OS44OTg3MDgtNTEuMTcwNDE1LTE3OC45MjEyMTEtMTAxLjYzOTg2NS0yNjguNDY5NDM4LTE1Mi42MzUwMzktMTguMjI1MDc5IDIzLjMwNzA3My00MS44ODI2MzQgMzUuMzk4NzEyLTcxLjMyMzE0NiAzMy4yOTU4MTgtMjIuOTU2NTktMS43NTI0MTEtNDEuNzA3MzkzLTEyLjA5MTYzOS01Ni4yNTI0MDktMzAuMTQxNDc3LTI2Ljk4NzEzNy0zMy45OTY3ODMtMjAuODUzNjk2LTgzLjQxNDc4NiAxMy40OTM1NjktMTExLjEwMjg4NyAzMS4wMTc2ODMtMjQuODg0MjQzIDg4LjY3MjAyLTI2LjYzNjY1NCAxMjAuNzQxMTUgMjYuODExODk1IDIzLjgzMjc5Ni04Ljc2MjA1NyA0Ny44NDA4MzMtMTcuNTI0MTE1IDcxLjg0ODg3LTI2LjI4NjE3MiA3Ni41ODAzODEtMjguMDM4NTg0IDE1My4xNjA3NjItNTYuMDc3MTY3IDIyOS45MTYzODUtODMuOTQwNTA5IDYuNDgzOTIyLTIuMjc4MTM1IDguNDExNTc1LTQuOTA2NzUyIDcuMTg0ODg3LTExLjkxNjM5OC03LjAwOTY0Ni00Mi45MzQwODEgMjMuNDgyMzE0LTgyLjAxMjg1NyA2OS4yMjAyNTMtODkuMTk3NzQ0IDM5Ljc3OTc0LTYuMzA4NjgxIDgwLjYxMDkyOCAyNC41MzM3NjEgODYuOTE5NjA5IDY1LjE4OTcwNiA1Ljc4Mjk1OCAzOC43MjgyOTMtMTQuMzY5Nzc0IDc0LjMwMjI0Ni00OS45NDM3MjcgODcuNjIwNTc0LTM1Ljc0OTE5NCAxMy4zMTgzMjctNzQuNjUyNzI5IDAuMTc1MjQxLTk1LjMzMTE4NC0zMi45NDUzMzYtMy41MDQ4MjMtNS42MDc3MTctNi40ODM5MjItNS43ODI5NTgtMTEuOTE2Mzk4LTMuODU1MzA1LTk4LjEzNTA0MiAzNi4wOTk2NzYtMTk2LjQ0NTMyNiA3Mi4wMjQxMTEtMjk0Ljc1NTYwOSAxMDcuNzczMzA1LTUuOTU4MTk5IDIuMTAyODk0LTcuNTM1MzY5IDQuNzMxNTExLTcuMzYwMTI4IDExLjIxNTQzNCAwLjM1MDQ4MiAxMS43NDExNTctMC4xNzUyNDEgMjMuODMyNzk2LTIuNDUzMzc2IDM1LjM5ODcxMi0xLjQwMTkyOSA2LjY1OTE2NCAwIDkuMTEyNTQgNS4yNTcyMzQgMTIuMDkxNjM5IDcxLjY3MzYyOSA0MC40ODA3MDUgMTQzLjE3MjAxNyA4MS4xMzY2NTEgMjE0LjY3MDQwNSAxMjEuNzkyNTk3IDEzLjY2ODgwOSA3LjcxMDYxIDI3LjUxMjg2IDE1LjQyMTIyMSA0MS4wMDY0MjkgMjMuNDgyMzE0IDUuMjU3MjM0IDMuMTU0MzQxIDguMDYxMDkzIDIuNjI4NjE3IDEyLjI2Njg4LTEuOTI3NjUzIDI4LjkxNDc4OS0zMi40MTk2MTIgNjUuNTQwMTg5LTQ5LjI0Mjc2MiAxMDguOTk5OTkzLTQ5LjU5MzI0NSAxMDAuNTg4NDE4LTAuODc2MjA2IDE3MS45MTE1NjUgOTguMzEwMjgzIDEzOS4zMTY3MTIgMTkzLjY0MTQ2OC0yLjgwMzg1OCA4LjIzNjMzNC0xLjA1MTQ0NyAxMS4zOTA2NzUgNi4xMzM0NCAxNS40MjEyMjEgODEuMzExODkyIDQ1LjkxMzE4MSAxNjIuNDQ4NTQzIDkyLjAwMTYwMiAyNDMuNTg1MTk1IDEzOC4yNjUyNjUgMy4zMjk1ODIgMS45Mjc2NTMgNi40ODM5MjIgMy42ODAwNjQgMTAuMzM5MjI3IDUuNjA3NzE2IDEyLjQ0MjEyMS0xNi42NDc5MDkgMjcuNTEyODYtMjguMjEzODI1IDQ3LjMxNTExLTMzLjI5NTgxOCA0Mi41ODM1OTktMTAuODY0OTUxIDg3LjA5NDg1IDE2LjI5NzQyNyA5Ni41NTc4NzIgNTkuMDU2MjY3IDkuODEzNTA0IDQ0LjY4NjQ5Mi0xOS4yNzY1MjYgODguNDk2Nzc5LTYzLjc4Nzc3OCA5NS41MDY0MjUtMzIuNDE5NjEyIDUuMDgxOTkzLTU4LjUzMDU0My02LjEzMzQ0LTc3Ljk4MjMxLTMyLjI0NDM3MS00LjAzMDU0Ni01LjQzMjQ3Ni03LjE4NDg4Ny01LjYwNzcxNy0xMi43OTI2MDQtMy41MDQ4MjMtOTcuOTU5ODAxIDM1LjkyNDQzNS0xOTUuOTE5NjAyIDcxLjg0ODg3LTI5NC4wNTQ2NDQgMTA3LjQyMjgyMy04LjQxMTU3NSAyLjk3OTA5OS0xMS45MTYzOTggNS42MDc3MTctMTAuODY0OTUxIDE2LjI5NzQyNyAzLjg1NTMwNSAzOC4wMjczMjktMjUuMjM0NzI1IDc0LjgyNzk3LTYyLjkxMTU3MiA4Mi4wMTI4NTctNDAuODMxMTg3IDcuNzEwNjEtNzkuNzM0NzIyLTE1LjU5NjQ2Mi05MS42NTExMi01NC44NTA0NzktMTEuMzkwNjc1LTM3Ljg1MjA4OCA3LjM2MDEyOC03OC44NTg1MTYgNDMuMjg0NTYzLTk0LjgwNTQ2MSAzNi42MjU0LTE2LjI5NzQyNyA3OS41NTk0ODEtMy4xNTQzNDEgMTAwLjIzNzkzNiAzMS4wMTc2ODMgMS43NTI0MTEgMi40NTMzNzYgMy4zMjk1ODIgNS4yNTcyMzQgNS42MDc3MTcgOS4xMTI1NHogbS03Ni45MzA4NjQtNTE4LjAxMjgzMWMtNzEuODQ4ODctMC4xNzUyNDEtMTMwLjM3OTQxMyA1Ny42NTQzMzctMTMwLjU1NDY1NCAxMjguOTc3NDg0LTAuMTc1MjQxIDcyLjU0OTgzNSA1Ny4zMDM4NTUgMTMxLjA4MDM3OCAxMjkuMTUyNzI1IDEzMS4yNTU2MTkgNzIuMzc0NTk0IDAuMTc1MjQxIDEzMC45MDUxMzctNTcuNDc5MDk2IDEzMS4wODAzNzgtMTI5LjMyNzk2NiAwLTcyLjM3NDU5NC01Ny44Mjk1NzgtMTMwLjcyOTg5Ni0xMjkuNjc4NDQ5LTEzMC45MDUxMzd6TTQ3NS43OTgyOTUgODAuMDg1MjA0Yy0wLjE3NTI0MSAzNC41MjI1MDYgMjcuMTYyMzc4IDYyLjkxMTU3MiA2MS4zMzQ0MDIgNjMuMjYyMDU0IDM1LjIyMzQ3MSAwLjM1MDQ4MiA2My42MTI1MzYtMjYuOTg3MTM3IDYzLjk2MzAxOC02MS41MDk2NDIgMC4zNTA0ODItMzUuMDQ4MjI5LTI3LjE2MjM3OC02My40MzcyOTUtNjEuNjg0ODgzLTYzLjYxMjUzNy0zNS4yMjM0NzEtMC4xNzUyNDEtNjMuNDM3Mjk1IDI3LjE2MjM3OC02My42MTI1MzcgNjEuODYwMTI1ek0xNDEuNzg4NjY5IDI0OS4zNjgxNTJjMC0zNC44NzI5ODgtMjcuNjg4MTAxLTYyLjkxMTU3Mi02Mi4zODU4NDgtNjIuOTExNTcyLTM0Ljg3Mjk4OCAwLTYyLjczNjMzMSAyNy42ODgxMDEtNjIuNzM2MzMxIDYyLjczNjMzMSAwIDM0LjM0NzI2NSAyNy42ODgxMDEgNjIuMzg1ODQ4IDYyLjAzNTM2NiA2Mi41NjEwODkgMzUuMDQ4MjI5IDAgNjMuMDg2ODEzLTI3LjY4ODEwMSA2My4wODY4MTMtNjIuMzg1ODQ4eiBtOTIzLjUyMDg0NSA1MjYuMDczOTIzYzAuMTc1MjQxLTM1LjA0ODIyOS0yNy41MTI4Ni02My4wODY4MTMtNjIuMjEwNjA3LTYzLjI2MjA1NC0zNC44NzI5ODgtMC4xNzUyNDEtNjIuOTExNTcyIDI3LjUxMjg2LTYzLjA4NjgxMyA2Mi4zODU4NDktMC4xNzUyNDEgMzQuMzQ3MjY1IDI3LjUxMjg2IDYyLjU2MTA4OSA2MS42ODQ4ODMgNjIuNzM2MzMgMzUuMjIzNDcxIDAuMTc1MjQxIDYzLjQzNzI5NS0yNy4zMzc2MTkgNjMuNjEyNTM3LTYxLjg2MDEyNXogbS01ODYuMDA2Mzk2IDE2OC45MzI0NjZjLTAuMTc1MjQxIDM0LjUyMjUwNiAyNy4zMzc2MTkgNjIuNzM2MzMxIDYxLjUwOTY0MyA2Mi45MTE1NzIgMzUuMjIzNDcxIDAuMzUwNDgyIDYzLjQzNzI5NS0yNy4xNjIzNzggNjMuNjEyNTM2LTYxLjY4NDg4NCAwLjE3NTI0MS0zNS4wNDgyMjktMjcuMzM3NjE5LTYzLjI2MjA1NC02Mi4wMzUzNjYtNjMuNDM3Mjk1LTM0Ljg3Mjk4OC0wLjE3NTI0MS02Mi45MTE1NzIgMjcuMzM3NjE5LTYzLjA4NjgxMyA2Mi4yMTA2MDd6Ii8+PC9zdmc+;" vertex="1" parent="1">
          <mxGeometry x="546.33" y="281" width="42.34" height="40" as="geometry" />
        </mxCell>
        <mxCell id="dmqp8DJoeUCVNRRBBs8O-34" value="&lt;span style=&quot;font-size: 14px;&quot;&gt;事实型记忆&lt;/span&gt;" style="text;strokeColor=none;align=center;fillColor=none;html=1;verticalAlign=middle;whiteSpace=wrap;rounded=0;container=0;" vertex="1" parent="1">
          <mxGeometry x="574" y="206" width="106" height="30" as="geometry" />
        </mxCell>
        <mxCell id="dmqp8DJoeUCVNRRBBs8O-35" value="&lt;span style=&quot;font-size: 14px;&quot;&gt;关系型记忆&lt;/span&gt;" style="text;strokeColor=none;align=center;fillColor=none;html=1;verticalAlign=middle;whiteSpace=wrap;rounded=0;container=0;" vertex="1" parent="1">
          <mxGeometry x="574" y="286" width="106" height="30" as="geometry" />
        </mxCell>
      </root>
    </mxGraphModel>
  </diagram>
</mxfile>
